<?xml version="1.0" standalone="no"?>
<!DOCTYPE svg PUBLIC "-//W3C//DTD SVG 20010904//EN"
 "http://www.w3.org/TR/2001/REC-SVG-20010904/DTD/svg10.dtd">
<svg version="1.0" xmlns="http://www.w3.org/2000/svg"
 width="93.000000pt" height="1020.000000pt" viewBox="0 0 93.000000 1020.000000"
 preserveAspectRatio="xMidYMid meet">

<g transform="translate(0.000000,1020.000000) scale(0.100000,-0.100000)"
fill="#000000" stroke="none">
<path d="M336 9921 c-21 -40 -7 -81 28 -81 37 0 51 24 40 68 -12 50 -46 56
-68 13z"/>
<path d="M455 9926 c-32 -48 1 -116 43 -90 9 6 18 23 20 38 4 28 -21 76 -38
76 -5 0 -17 -11 -25 -24z"/>
<path d="M268 9849 c-28 -16 -24 -77 5 -88 34 -13 59 5 55 41 -4 37 -35 61
-60 47z"/>
<path d="M530 9830 c-35 -35 -23 -80 21 -80 44 0 65 53 33 84 -20 21 -30 20
-54 -4z"/>
<path d="M359 9728 c-39 -42 -49 -59 -47 -83 l3 -30 105 0 105 0 3 27 c3 22
-8 40 -49 83 -28 30 -56 55 -61 55 -6 0 -32 -24 -59 -52z"/>
<path d="M665 9565 c-41 -40 -29 -95 20 -95 36 0 61 80 33 108 -17 17 -26 15
-53 -13z"/>
<path d="M776 9537 c-32 -32 -35 -81 -7 -97 26 -13 27 -13 51 12 25 27 26 59
1 89 l-18 23 -27 -27z"/>
<path d="M574 9502 c-20 -13 -35 -52 -29 -72 8 -25 50 -37 70 -20 21 17 19 63
-3 83 -21 19 -23 20 -38 9z"/>
<path d="M817 9412 c-9 -10 -17 -31 -17 -45 0 -20 6 -28 27 -33 33 -9 66 26
61 65 -4 33 -46 41 -71 13z"/>
<path d="M225 9375 c-31 -30 -34 -80 -6 -95 26 -13 46 -5 60 26 19 43 11 94
-16 94 -7 0 -25 -11 -38 -25z"/>
<path d="M665 9380 c-4 -6 -24 -22 -46 -36 -22 -13 -45 -36 -52 -51 -10 -22
-8 -28 12 -44 14 -11 39 -19 62 -19 21 0 54 -8 74 -17 74 -35 93 18 42 112
-25 47 -38 61 -59 63 -14 2 -29 -2 -33 -8z"/>
<path d="M335 9343 c-39 -42 -30 -103 15 -103 40 0 64 66 40 111 -14 26 -24
24 -55 -8z"/>
<path d="M116 9298 c-22 -31 -20 -75 3 -88 44 -23 82 29 59 78 -17 35 -42 39
-62 10z"/>
<path d="M400 9233 c-23 -10 -39 -35 -40 -65 0 -36 41 -49 70 -23 25 22 27 80
4 89 -9 3 -16 6 -17 5 -1 0 -9 -3 -17 -6z"/>
<path d="M183 9155 c-59 -42 -84 -80 -69 -103 3 -5 27 -13 53 -17 27 -3 69
-14 95 -23 52 -18 78 -8 78 32 0 31 -62 150 -80 154 -8 1 -43 -18 -77 -43z"/>
<path d="M562 8933 c-15 -6 -42 -56 -42 -77 0 -21 28 -46 51 -46 26 0 53 61
44 101 -6 28 -22 35 -53 22z"/>
<path d="M660 8878 c-12 -19 -19 -46 -18 -63 3 -25 8 -31 31 -33 38 -5 57 14
57 55 0 74 -37 95 -70 41z"/>
<path d="M435 8826 c-22 -33 -16 -77 11 -87 29 -10 64 15 64 47 0 61 -46 85
-75 40z"/>
<path d="M735 8768 c-45 -24 -58 -64 -29 -92 21 -21 40 -20 64 4 42 42 13 113
-35 88z"/>
<path d="M520 8694 c-59 -46 -80 -71 -80 -99 0 -25 17 -35 61 -35 16 0 53 -8
82 -18 28 -10 60 -16 69 -14 33 7 33 50 2 111 -54 105 -64 109 -134 55z"/>
<path d="M354 8312 c-6 -4 -16 -17 -23 -30 -25 -47 22 -100 60 -66 22 20 24
42 7 79 -11 25 -24 31 -44 17z"/>
<path d="M455 8297 c-28 -40 -17 -97 19 -97 29 0 46 18 46 48 0 55 -40 85 -65
49z"/>
<path d="M256 8204 c-13 -35 -6 -64 19 -76 19 -8 28 -8 40 2 18 15 20 61 3 78
-17 17 -55 15 -62 -4z"/>
<path d="M543 8209 c-23 -9 -39 -48 -29 -74 3 -9 18 -15 35 -15 35 0 56 29 47
65 -7 28 -24 35 -53 24z"/>
<path d="M364 8103 c-45 -49 -61 -81 -51 -107 5 -11 28 -14 109 -13 l103 2 3
27 c2 19 -8 38 -40 73 -67 73 -72 74 -124 18z"/>
<path d="M685 7947 c-47 -25 -58 -72 -25 -102 24 -22 47 -14 60 20 23 59 4
104 -35 82z"/>
<path d="M776 7907 c-28 -28 -35 -74 -14 -95 17 -17 35 -15 58 8 25 25 26 61
1 91 l-18 23 -27 -27z"/>
<path d="M566 7865 c-39 -39 -27 -95 19 -95 48 0 61 69 19 97 -19 12 -24 12
-38 -2z"/>
<path d="M818 7783 c-34 -39 -26 -83 16 -83 55 0 79 92 25 98 -15 2 -31 -4
-41 -15z"/>
<path d="M225 7745 c-43 -42 -26 -116 23 -101 35 12 55 89 30 114 -17 17 -26
15 -53 -13z"/>
<path d="M629 7720 c-95 -68 -88 -119 17 -120 18 0 45 -7 60 -15 50 -26 85
-13 84 30 -1 35 -63 140 -85 143 -11 1 -45 -16 -76 -38z"/>
<path d="M335 7709 c-35 -43 -32 -93 6 -97 49 -6 77 56 49 109 -15 26 -24 24
-55 -12z"/>
<path d="M120 7670 c-26 -26 -26 -76 -1 -90 41 -21 80 25 62 74 -13 33 -38 39
-61 16z"/>
<path d="M386 7589 c-36 -28 -36 -76 0 -85 48 -12 93 71 53 97 -20 12 -23 12
-53 -12z"/>
<path d="M207 7543 c-20 -16 -48 -36 -62 -46 -29 -20 -43 -63 -26 -80 6 -6 35
-14 63 -18 29 -3 68 -13 86 -20 38 -16 65 -5 70 29 4 27 -53 148 -74 156 -21
8 -17 10 -57 -21z"/>
<path d="M552 7290 c-45 -42 -36 -110 14 -110 49 0 71 119 24 128 -9 1 -26 -7
-38 -18z"/>
<path d="M670 7260 c-38 -38 -40 -97 -4 -111 34 -12 64 15 64 57 0 38 -15 74
-30 74 -6 0 -19 -9 -30 -20z"/>
<path d="M436 7198 c-23 -32 -21 -75 4 -88 46 -25 84 22 64 79 -12 34 -47 39
-68 9z"/>
<path d="M711 7119 c-28 -31 -27 -67 3 -80 44 -20 85 23 74 78 -5 28 -52 29
-77 2z"/>
<path d="M511 7055 c-87 -64 -98 -125 -23 -125 21 0 64 -9 96 -20 65 -22 84
-18 93 18 4 18 -3 42 -27 86 -57 104 -54 104 -139 41z"/>
<path d="M324 6685 c-25 -39 -9 -80 31 -80 29 0 30 1 30 50 0 44 -3 50 -22 53
-15 2 -27 -5 -39 -23z"/>
<path d="M439 6694 c-7 -9 -13 -32 -13 -51 0 -49 36 -69 68 -37 20 20 20 53 0
82 -18 26 -36 28 -55 6z"/>
<path d="M252 6608 c-17 -17 -15 -77 3 -84 8 -4 26 -3 40 0 33 8 35 58 3 80
-27 19 -31 19 -46 4z"/>
<path d="M517 6592 c-21 -24 -22 -68 -1 -76 28 -11 43 -6 59 18 13 19 14 28 4
50 -14 30 -39 34 -62 8z"/>
<path d="M353 6498 c-48 -51 -65 -81 -57 -102 7 -18 3 -18 114 -20 90 -2 110
5 110 36 0 21 -96 128 -114 128 -7 0 -30 -19 -53 -42z"/>
<path d="M652 6327 c-38 -40 -21 -104 25 -95 26 5 48 56 37 87 -12 34 -35 37
-62 8z"/>
<path d="M760 6298 c-35 -53 -29 -98 13 -98 32 0 50 23 49 61 -1 56 -36 76
-62 37z"/>
<path d="M546 6248 c-22 -31 -20 -65 3 -78 27 -14 37 -13 55 6 21 21 20 57 -2
77 -25 23 -38 21 -56 -5z"/>
<path d="M823 6189 c-62 -23 -45 -114 17 -94 22 7 42 52 35 75 -7 23 -24 29
-52 19z"/>
<path d="M217 6148 c-43 -34 -38 -108 8 -108 19 0 29 8 42 34 29 62 -3 109
-50 74z"/>
<path d="M615 6112 c-33 -26 -61 -56 -63 -65 -5 -28 17 -47 54 -47 18 0 56 -9
83 -20 89 -35 112 1 62 95 -37 69 -49 85 -65 85 -7 0 -39 -22 -71 -48z"/>
<path d="M321 6104 c-41 -52 -17 -119 34 -96 29 13 42 54 29 91 -13 35 -38 37
-63 5z"/>
<path d="M94 6045 c-11 -26 -12 -41 -4 -55 12 -22 49 -27 68 -8 17 17 15 64
-4 82 -25 25 -44 19 -60 -19z"/>
<path d="M361 5974 c-26 -33 -26 -46 -1 -69 18 -16 23 -17 45 -5 46 24 48 93
4 98 -19 2 -33 -5 -48 -24z"/>
<path d="M167 5918 c-89 -64 -92 -112 -5 -121 29 -3 70 -13 90 -22 76 -37 95
9 46 111 -23 47 -40 70 -53 71 -11 2 -46 -16 -78 -39z"/>
<path d="M540 5682 c-17 -18 -30 -41 -30 -56 0 -27 23 -56 45 -56 38 0 62 104
30 130 -12 10 -20 7 -45 -18z"/>
<path d="M650 5643 c-29 -38 -25 -97 8 -101 49 -7 79 57 52 109 -15 26 -35 24
-60 -8z"/>
<path d="M416 5579 c-17 -41 -10 -68 20 -75 34 -9 52 1 60 31 17 68 -54 107
-80 44z"/>
<path d="M706 5519 c-21 -16 -26 -28 -24 -53 3 -27 7 -31 35 -34 51 -5 83 57
47 92 -20 21 -26 20 -58 -5z"/>
<path d="M525 5470 c-10 -12 -33 -30 -51 -41 -18 -11 -37 -33 -43 -49 -14 -41
7 -60 67 -60 26 -1 58 -7 72 -15 40 -23 79 -19 92 9 9 21 6 34 -22 88 -18 35
-37 69 -42 76 -16 18 -53 14 -73 -8z"/>
<path d="M324 5054 c-25 -38 -9 -79 31 -79 26 0 30 4 33 29 9 72 -30 102 -64
50z"/>
<path d="M435 5051 c-27 -53 2 -103 49 -85 24 9 32 53 15 83 -21 37 -45 38
-64 2z"/>
<path d="M251 4976 c-7 -8 -11 -30 -9 -48 3 -30 6 -33 38 -33 31 0 35 3 38 27
2 17 -4 34 -17 47 -25 25 -34 26 -50 7z"/>
<path d="M522 4964 c-34 -24 -28 -78 10 -82 20 -2 31 4 44 22 15 24 15 28 0
51 -19 29 -24 30 -54 9z"/>
<path d="M353 4868 c-47 -48 -65 -86 -52 -109 7 -13 27 -16 101 -15 100 2 118
7 118 36 0 19 -99 130 -116 130 -5 0 -29 -19 -51 -42z"/>
<path d="M652 4697 c-38 -40 -21 -104 25 -95 26 5 48 56 37 87 -12 34 -35 37
-62 8z"/>
<path d="M763 4668 c-33 -35 -34 -81 -4 -98 45 -23 86 63 50 106 -16 19 -22
18 -46 -8z"/>
<path d="M546 4618 c-22 -31 -20 -65 4 -78 49 -26 88 27 56 75 -20 31 -40 32
-60 3z"/>
<path d="M794 4535 c-27 -41 5 -86 48 -70 21 8 40 53 33 76 -9 29 -60 25 -81
-6z"/>
<path d="M213 4508 c-33 -36 -34 -81 -2 -98 27 -15 56 10 65 56 11 59 -25 82
-63 42z"/>
<path d="M621 4485 c-57 -42 -82 -80 -67 -103 3 -5 31 -12 62 -16 30 -3 69
-13 84 -21 41 -21 59 -19 72 10 9 21 6 34 -22 91 -47 91 -55 93 -129 39z"/>
<path d="M321 4474 c-12 -15 -21 -41 -21 -60 0 -28 4 -35 27 -40 47 -12 80 55
53 107 -15 26 -35 24 -59 -7z"/>
<path d="M113 4442 c-21 -13 -34 -61 -23 -83 12 -21 50 -25 68 -7 17 17 15 64
-4 82 -17 18 -24 19 -41 8z"/>
<path d="M365 4345 c-14 -13 -25 -31 -25 -39 0 -19 27 -46 46 -46 42 0 75 90
38 104 -26 10 -34 7 -59 -19z"/>
<path d="M170 4289 c-62 -45 -73 -60 -68 -92 2 -18 11 -23 54 -28 28 -4 67
-14 87 -24 45 -21 69 -17 80 15 12 34 -49 164 -78 167 -11 2 -45 -16 -75 -38z"/>
<path d="M531 4044 c-11 -15 -21 -37 -21 -50 0 -25 24 -54 45 -54 24 0 47 45
43 87 -4 49 -35 57 -67 17z"/>
<path d="M650 4013 c-14 -19 -20 -38 -18 -62 3 -30 7 -36 29 -39 49 -6 77 56
49 109 -15 26 -35 24 -60 -8z"/>
<path d="M420 3960 c-6 -12 -10 -35 -8 -53 3 -29 6 -32 38 -32 29 0 36 5 44
27 21 59 -46 111 -74 58z"/>
<path d="M706 3889 c-36 -28 -36 -75 0 -91 24 -11 29 -9 50 15 28 33 30 59 8
81 -20 21 -26 20 -58 -5z"/>
<path d="M505 3823 c-28 -21 -55 -45 -62 -53 -35 -45 -14 -80 48 -80 22 0 56
-7 76 -15 52 -22 82 -19 94 9 10 20 5 35 -27 97 -27 51 -45 75 -59 77 -12 2
-42 -14 -70 -35z"/>
<path d="M324 3435 c-25 -39 -9 -80 31 -80 29 0 30 1 30 50 0 44 -3 50 -22 53
-15 2 -27 -5 -39 -23z"/>
<path d="M435 3431 c-27 -53 2 -103 49 -85 24 9 32 53 15 83 -21 37 -45 38
-64 2z"/>
<path d="M252 3358 c-17 -17 -15 -77 3 -84 8 -4 26 -3 40 0 33 8 35 58 3 80
-27 19 -31 19 -46 4z"/>
<path d="M517 3342 c-21 -24 -22 -68 -1 -76 28 -11 43 -6 59 18 13 19 14 28 4
50 -14 30 -39 34 -62 8z"/>
<path d="M353 3248 c-52 -55 -67 -83 -54 -106 8 -15 23 -18 103 -17 102 1 118
6 118 36 0 22 -95 129 -114 129 -7 0 -30 -19 -53 -42z"/>
<path d="M652 3077 c-38 -40 -21 -104 25 -95 26 5 48 56 37 87 -12 34 -35 37
-62 8z"/>
<path d="M760 3048 c-35 -53 -29 -98 13 -98 32 0 50 23 49 61 -1 56 -36 76
-62 37z"/>
<path d="M546 2998 c-22 -31 -20 -65 3 -78 27 -14 37 -13 55 6 21 21 20 57 -2
77 -25 23 -38 21 -56 -5z"/>
<path d="M823 2939 c-62 -23 -45 -114 17 -94 22 7 42 52 35 75 -7 23 -24 29
-52 19z"/>
<path d="M217 2898 c-43 -34 -38 -108 8 -108 19 0 29 8 42 34 29 62 -3 109
-50 74z"/>
<path d="M644 2884 c-56 -38 -94 -75 -94 -94 0 -25 21 -40 57 -40 18 0 55 -9
82 -20 57 -22 79 -18 87 15 7 30 -63 165 -86 165 -4 0 -25 -12 -46 -26z"/>
<path d="M321 2854 c-28 -35 -28 -90 -1 -99 46 -14 83 40 64 94 -13 35 -38 37
-63 5z"/>
<path d="M94 2795 c-11 -26 -12 -41 -4 -55 12 -22 49 -27 68 -8 17 17 15 64
-4 82 -25 25 -44 19 -60 -19z"/>
<path d="M365 2726 c-30 -30 -31 -47 -5 -71 18 -16 23 -17 45 -5 43 23 48 92
8 98 -14 2 -32 -7 -48 -22z"/>
<path d="M167 2668 c-89 -64 -92 -112 -5 -121 29 -3 70 -13 90 -22 76 -37 95
9 46 111 -23 47 -40 70 -53 71 -11 2 -46 -16 -78 -39z"/>
<path d="M540 2432 c-17 -18 -30 -41 -30 -56 0 -27 23 -56 45 -56 38 0 62 104
30 130 -12 10 -20 7 -45 -18z"/>
<path d="M650 2393 c-14 -19 -20 -38 -18 -62 3 -30 7 -36 29 -39 49 -6 77 56
49 109 -15 26 -35 24 -60 -8z"/>
<path d="M416 2329 c-17 -41 -10 -68 20 -75 34 -9 52 1 60 31 17 68 -54 107
-80 44z"/>
<path d="M706 2269 c-21 -16 -26 -28 -24 -53 3 -27 7 -31 35 -34 51 -5 83 57
47 92 -20 21 -26 20 -58 -5z"/>
<path d="M510 2209 c-71 -62 -78 -69 -83 -89 -8 -31 19 -50 71 -50 26 -1 58
-7 72 -15 40 -23 79 -19 92 9 9 21 6 34 -22 88 -18 35 -37 69 -42 76 -17 20
-51 13 -88 -19z"/>
<path d="M353 1810 c-28 -43 -10 -90 34 -90 16 0 25 8 29 26 15 60 -35 110
-63 64z"/>
<path d="M466 1808 c-30 -42 -15 -98 25 -98 40 0 56 65 24 100 -23 25 -30 25
-49 -2z"/>
<path d="M276 1724 c-32 -32 -14 -84 30 -84 33 0 49 25 36 55 -16 35 -47 49
-66 29z"/>
<path d="M541 1709 c-25 -27 -27 -52 -7 -69 24 -19 60 -8 70 23 19 54 -26 86
-63 46z"/>
<path d="M383 1623 c-53 -58 -66 -80 -59 -107 6 -23 8 -23 107 -22 86 1 102 4
111 19 7 13 5 24 -5 40 -28 40 -94 107 -107 107 -7 0 -28 -17 -47 -37z"/>
<path d="M683 1451 c-44 -41 -37 -101 12 -101 31 0 47 30 43 78 -4 43 -24 52
-55 23z"/>
<path d="M784 1415 c-32 -33 -30 -84 4 -96 45 -17 79 50 52 102 -14 25 -26 24
-56 -6z"/>
<path d="M575 1374 c-36 -36 1 -114 43 -88 24 16 28 75 6 91 -23 17 -29 16
-49 -3z"/>
<path d="M827 1292 c-20 -22 -22 -53 -5 -70 31 -31 82 6 76 55 -4 35 -45 44
-71 15z"/>
<path d="M235 1256 c-30 -30 -32 -66 -6 -90 38 -34 77 12 69 80 -4 38 -31 42
-63 10z"/>
<path d="M693 1267 c-81 -47 -115 -83 -111 -116 3 -23 9 -27 53 -33 27 -4 69
-14 93 -23 77 -30 93 11 42 112 -33 67 -47 77 -77 60z"/>
<path d="M346 1219 c-44 -52 -26 -109 29 -95 36 9 51 80 23 114 -15 18 -24 15
-52 -19z"/>
<path d="M126 1178 c-25 -36 -21 -76 9 -84 35 -9 53 1 61 31 7 29 -18 75 -41
75 -7 0 -21 -10 -29 -22z"/>
<path d="M396 1099 c-35 -27 -35 -65 0 -81 24 -11 29 -9 50 15 26 31 30 57 12
75 -17 17 -32 15 -62 -9z"/>
<path d="M193 1036 c-84 -61 -93 -115 -19 -116 17 -1 49 -8 71 -16 85 -33 104
-29 105 23 0 23 -39 112 -60 138 -19 23 -30 19 -97 -29z"/>
<path d="M562 797 c-37 -40 -25 -107 20 -107 19 0 48 47 48 79 0 54 -31 67
-68 28z"/>
<path d="M671 756 c-12 -18 -21 -42 -21 -53 0 -47 59 -59 86 -18 14 22 15 32
5 65 -15 51 -41 53 -70 6z"/>
<path d="M444 706 c-31 -48 -3 -95 49 -82 23 5 27 12 27 44 0 63 -45 85 -76
38z"/>
<path d="M743 648 c-12 -6 -27 -23 -34 -39 -10 -25 -9 -32 6 -49 23 -25 40
-25 65 0 22 22 27 69 8 88 -14 14 -16 14 -45 0z"/>
<path d="M518 564 c-86 -68 -89 -124 -6 -124 21 0 55 -7 75 -15 101 -43 126
-3 70 111 -45 90 -57 92 -139 28z"/>
</g>
</svg>
