<?xml version="1.0" standalone="no"?>
<!DOCTYPE svg PUBLIC "-//W3C//DTD SVG 20010904//EN"
 "http://www.w3.org/TR/2001/REC-SVG-20010904/DTD/svg10.dtd">
<svg version="1.0" xmlns="http://www.w3.org/2000/svg"
 width="236.000000pt" height="452.000000pt" viewBox="0 0 236.000000 452.000000"
 preserveAspectRatio="xMidYMid meet">

<g transform="translate(0.000000,452.000000) scale(0.100000,-0.100000)"
fill="#000000" stroke="none">
<path d="M1467 4279 c-57 -33 -62 -159 -7 -189 30 -16 56 -4 74 34 25 52 21
112 -9 141 -27 28 -32 29 -58 14z"/>
<path d="M1624 4211 c-33 -20 -64 -75 -64 -113 0 -28 28 -58 54 -58 68 0 127
128 80 174 -20 21 -32 20 -70 -3z"/>
<path d="M1302 4167 c-38 -46 -33 -131 11 -162 29 -20 42 -19 67 7 24 26 27
86 5 127 -20 40 -62 54 -83 28z"/>
<path d="M1641 3999 c-52 -52 -36 -129 26 -129 34 0 93 60 93 95 0 72 -64 90
-119 34z"/>
<path d="M1415 3996 c-60 -28 -125 -96 -125 -131 0 -35 51 -65 110 -65 29 0
62 -9 92 -25 26 -14 54 -25 63 -25 24 0 55 38 55 68 0 51 -40 150 -72 177 -37
31 -59 31 -123 1z"/>
<path d="M1767 3672 c-52 -57 -47 -174 9 -188 31 -8 43 1 66 53 40 91 -19 197
-75 135z"/>
<path d="M1910 3602 c-37 -38 -57 -103 -42 -137 33 -72 142 16 142 114 0 56
-54 69 -100 23z"/>
<path d="M1615 3555 c-51 -50 -19 -175 44 -175 4 0 17 9 29 20 33 31 31 121
-3 155 -13 14 -29 25 -35 25 -6 0 -22 -11 -35 -25z"/>
<path d="M1942 3400 c-70 -69 -32 -171 47 -124 52 31 80 111 49 142 -22 22
-65 14 -96 -18z"/>
<path d="M1709 3381 c-55 -34 -109 -98 -109 -127 0 -34 35 -57 102 -66 33 -4
75 -17 93 -28 87 -54 128 12 90 145 -31 106 -90 131 -176 76z"/>
<path d="M1110 3258 c-24 -40 -27 -114 -4 -146 53 -76 141 46 98 135 -26 53
-65 58 -94 11z"/>
<path d="M1284 3215 c-27 -18 -54 -75 -54 -112 0 -82 93 -66 139 24 36 71 -23
132 -85 88z"/>
<path d="M959 3163 c-8 -9 -14 -38 -14 -64 0 -36 6 -53 24 -73 30 -32 65 -33
85 -4 38 53 3 158 -53 158 -16 0 -35 -7 -42 -17z"/>
<path d="M1322 3015 c-75 -63 -48 -165 35 -130 81 34 90 155 12 155 -10 0 -31
-11 -47 -25z"/>
<path d="M1064 2990 c-140 -80 -136 -169 7 -184 34 -3 76 -15 94 -26 36 -23
75 -26 93 -8 19 19 14 108 -9 158 -44 98 -93 113 -185 60z"/>
<path d="M1420 2658 c-30 -49 -27 -128 4 -157 20 -19 28 -21 45 -12 30 16 51
63 51 113 0 85 -61 119 -100 56z"/>
<path d="M1601 2623 c-36 -18 -71 -77 -71 -121 0 -28 26 -62 48 -62 23 0 71
52 87 94 29 75 -3 118 -64 89z"/>
<path d="M1294 2572 c-38 -25 -46 -114 -13 -156 24 -30 49 -33 72 -8 56 61 4
206 -59 164z"/>
<path d="M1609 2401 c-40 -40 -49 -74 -29 -112 16 -30 63 -25 98 11 39 38 49
83 28 115 -23 35 -52 31 -97 -14z"/>
<path d="M1392 2394 c-62 -31 -122 -97 -122 -134 0 -41 31 -62 104 -69 36 -4
73 -14 83 -23 35 -30 61 -31 89 -3 24 24 26 31 20 82 -8 69 -28 116 -62 148
-34 31 -48 31 -112 -1z"/>
<path d="M693 2369 c-29 -11 -53 -59 -53 -107 0 -48 33 -95 63 -90 47 7 81
101 57 158 -15 37 -38 50 -67 39z"/>
<path d="M854 2305 c-61 -26 -95 -123 -56 -158 29 -26 57 -20 91 18 48 55 55
115 16 141 -16 10 -26 10 -51 -1z"/>
<path d="M520 2250 c-27 -27 -34 -63 -20 -104 11 -36 43 -66 67 -66 7 0 22 9
33 20 30 30 27 100 -6 139 -30 36 -46 39 -74 11z"/>
<path d="M862 2087 c-36 -37 -43 -85 -16 -111 49 -50 153 42 128 112 -7 21
-17 28 -44 30 -29 2 -41 -3 -68 -31z"/>
<path d="M635 2086 c-60 -27 -125 -96 -125 -131 0 -34 37 -55 112 -65 35 -4
79 -17 98 -29 45 -27 61 -26 88 2 26 27 27 45 8 108 -28 93 -65 139 -111 139
-11 0 -42 -11 -70 -24z"/>
<path d="M997 1769 c-24 -14 -47 -69 -47 -112 0 -40 33 -87 61 -87 52 0 82
147 39 190 -23 23 -28 24 -53 9z"/>
<path d="M1148 1704 c-31 -16 -68 -81 -68 -118 0 -30 24 -56 51 -56 30 0 76
51 89 99 9 36 9 47 -5 67 -18 28 -29 29 -67 8z"/>
<path d="M826 1635 c-37 -56 -5 -155 49 -155 52 0 72 113 29 161 -24 26 -58
24 -78 -6z"/>
<path d="M1162 1490 c-35 -34 -46 -69 -33 -103 20 -53 81 -40 121 26 24 39 25
70 4 91 -24 24 -59 19 -92 -14z"/>
<path d="M943 1479 c-54 -26 -123 -101 -123 -132 0 -36 34 -59 100 -68 32 -5
74 -18 92 -29 89 -54 130 6 92 136 -20 69 -57 114 -92 114 -15 0 -46 -9 -69
-21z"/>
<path d="M343 1365 c-24 -17 -37 -62 -34 -115 6 -110 124 -78 124 34 0 50 -24
96 -51 96 -10 0 -27 -7 -39 -15z"/>
<path d="M504 1301 c-42 -26 -70 -93 -54 -132 17 -41 54 -43 96 -7 41 36 59
90 41 127 -15 33 -43 37 -83 12z"/>
<path d="M180 1255 c-6 -8 -14 -32 -17 -53 -13 -94 86 -157 118 -75 31 80 -53
186 -101 128z"/>
<path d="M570 1123 c-24 -9 -51 -36 -67 -67 -12 -23 -12 -34 -3 -57 18 -42 71
-41 111 2 59 63 30 148 -41 122z"/>
<path d="M290 1084 c-86 -49 -130 -107 -110 -145 14 -24 38 -34 110 -44 30 -4
71 -16 90 -26 39 -21 63 -24 91 -9 26 14 25 82 -2 154 -36 96 -93 119 -179 70z"/>
<path d="M640 748 c-20 -33 -27 -108 -14 -142 18 -47 72 -39 100 16 18 36 15
117 -6 143 -22 26 -58 18 -80 -17z"/>
<path d="M806 705 c-55 -42 -77 -143 -37 -165 29 -15 37 -13 74 20 64 56 71
160 10 160 -16 0 -37 -7 -47 -15z"/>
<path d="M508 659 c-45 -26 -41 -144 7 -175 68 -45 114 97 52 164 -23 24 -33
26 -59 11z"/>
<path d="M829 491 c-46 -46 -54 -99 -18 -125 66 -46 169 103 104 150 -29 22
-44 17 -86 -25z"/>
<path d="M613 484 c-58 -28 -119 -90 -129 -130 -11 -41 28 -69 106 -77 39 -4
71 -14 87 -27 31 -24 76 -26 94 -3 17 20 17 93 0 152 -13 46 -68 111 -93 111
-8 0 -37 -12 -65 -26z"/>
</g>
</svg>
