<?xml version="1.0" encoding="utf-8"?>
<!-- Generator: Adobe Illustrator 24.0.1, SVG Export Plug-In . SVG Version: 6.00 Build 0)  -->
<svg version="1.1" xmlns="http://www.w3.org/2000/svg" xmlns:xlink="http://www.w3.org/1999/xlink" x="0px" y="0px"
	 viewBox="0 0 1920 1080" style="enable-background:new 0 0 1920 1080;" xml:space="preserve">
<style type="text/css">
	.st0{fill:#EE9B00;}
	.st1{fill:#FFFEFD;}
</style>
<g id="Camada_1">
	<g>
		<rect x="0.5" y="0.5" class="st0" width="1919" height="1079"/>
		<path d="M1919,1v1078H1V1H1919 M1920,0H0v1080h1920V0L1920,0z"/>
	</g>
</g>
<g id="Camada_2">
	<g>
		<path class="st1" d="M173.19,897.73c-8.21,6.82-17.26,9.48-20.2,5.94c-2.94-3.54-3.35-17.58,4.86-24.4
			c8.21-6.82,16.81-13.97,24.88-0.3C185.07,882.93,181.4,890.91,173.19,897.73z"/>
		<path class="st1" d="M177.02,904.4c-8.21,6.82-12.49,15.22-9.54,18.77c2.94,3.54,16.67,6.52,24.88-0.3s16.81-13.97,4.86-24.4
			C193.75,895.44,185.23,897.58,177.02,904.4z"/>
		<path class="st1" d="M178.23,960.55c6.55-5.44,14.99-13.2,10.35-18.78c-4.64-5.58-21.96-5.74-28.5-0.3
			c-6.55,5.44-5.38,12.11-0.74,17.7C163.97,964.75,171.68,965.99,178.23,960.55z"/>
		<path class="st1" d="M119.61,878.5c6.55-5.44,15.72-12.31,20.36-6.73c4.64,5.58,1.62,22.64-4.93,28.08
			c-6.55,5.44-12.9,3.06-17.53-2.52C112.87,891.75,113.06,883.94,119.61,878.5z"/>
		<path class="st1" d="M116.97,947.31c0,0,7.73,21.57,14.62,22.74c6.89,1.18,13.24-5.41,17.02-19.06s8.67-21.32,3.31-29.69
			c-5.35-8.36-9.9-9.76-16.09-12.59c-7.4-3.38-13.27,1.82-20.65,4.01c-7.38,2.19-31.64,7.88-16.33,20.13
			S115.51,943.56,116.97,947.31z"/>
	</g>
	<g>
		<path class="st1" d="M310.19,760.73c-8.21,6.82-17.26,9.48-20.2,5.94c-2.94-3.54-3.35-17.58,4.86-24.4
			c8.21-6.82,16.81-13.97,24.88-0.3C322.07,745.93,318.4,753.91,310.19,760.73z"/>
		<path class="st1" d="M314.02,767.4c-8.21,6.82-12.49,15.22-9.54,18.77c2.94,3.54,16.67,6.52,24.88-0.3
			c8.21-6.82,16.81-13.97,4.86-24.4C330.75,758.44,322.23,760.58,314.02,767.4z"/>
		<path class="st1" d="M315.23,823.55c6.55-5.44,14.99-13.2,10.35-18.78c-4.64-5.58-21.96-5.74-28.5-0.3
			c-6.55,5.44-5.38,12.11-0.74,17.7C300.97,827.75,308.68,828.99,315.23,823.55z"/>
		<path class="st1" d="M256.61,741.5c6.55-5.44,15.73-12.31,20.36-6.73c4.64,5.58,1.62,22.64-4.93,28.08s-12.9,3.06-17.53-2.52
			C249.87,754.75,250.06,746.94,256.61,741.5z"/>
		<path class="st1" d="M253.97,810.31c0,0,7.73,21.57,14.62,22.74c6.89,1.18,13.24-5.41,17.02-19.06s8.67-21.32,3.31-29.69
			c-5.35-8.36-9.9-9.76-16.09-12.59c-7.4-3.38-13.27,1.82-20.65,4.01c-7.38,2.19-31.64,7.88-16.33,20.13
			S252.51,806.56,253.97,810.31z"/>
	</g>
	<g>
		<path class="st1" d="M334.19,915.73c-8.21,6.82-17.26,9.48-20.2,5.94c-2.94-3.54-3.35-17.58,4.86-24.4
			c8.21-6.82,16.81-13.97,24.88-0.3C346.07,900.93,342.4,908.91,334.19,915.73z"/>
		<path class="st1" d="M338.02,922.4c-8.21,6.82-12.49,15.22-9.54,18.77c2.94,3.54,16.67,6.52,24.88-0.3
			c8.21-6.82,16.81-13.97,4.86-24.4C354.75,913.44,346.23,915.58,338.02,922.4z"/>
		<path class="st1" d="M339.23,978.55c6.55-5.44,14.99-13.2,10.35-18.78c-4.64-5.58-21.96-5.74-28.5-0.3
			c-6.55,5.44-5.38,12.11-0.74,17.7C324.97,982.75,332.68,983.99,339.23,978.55z"/>
		<path class="st1" d="M280.61,896.5c6.55-5.44,15.73-12.31,20.36-6.73c4.64,5.58,1.62,22.64-4.93,28.08s-12.9,3.06-17.53-2.52
			C273.87,909.75,274.06,901.94,280.61,896.5z"/>
		<path class="st1" d="M277.97,965.31c0,0,7.73,21.57,14.62,22.74c6.89,1.18,13.24-5.41,17.02-19.06s8.67-21.32,3.31-29.69
			c-5.35-8.36-9.9-9.76-16.09-12.59c-7.4-3.38-13.27,1.82-20.65,4.01c-7.38,2.19-31.64,7.88-16.33,20.13
			S276.51,961.56,277.97,965.31z"/>
	</g>
	<g>
		<path class="st1" d="M469.19,791.73c-8.21,6.82-17.26,9.48-20.2,5.94c-2.94-3.54-3.35-17.58,4.86-24.4
			c8.21-6.82,16.81-13.97,24.88-0.3C481.07,776.93,477.4,784.91,469.19,791.73z"/>
		<path class="st1" d="M473.02,798.4c-8.21,6.82-12.49,15.22-9.54,18.77c2.94,3.54,16.67,6.52,24.88-0.3
			c8.21-6.82,16.81-13.97,4.86-24.4C489.75,789.44,481.23,791.58,473.02,798.4z"/>
		<path class="st1" d="M474.23,854.55c6.55-5.44,14.99-13.2,10.35-18.78c-4.64-5.58-21.96-5.74-28.5-0.3
			c-6.55,5.44-5.38,12.11-0.74,17.7C459.97,858.75,467.68,859.99,474.23,854.55z"/>
		<path class="st1" d="M415.61,772.5c6.55-5.44,15.73-12.31,20.36-6.73c4.64,5.58,1.62,22.64-4.93,28.08s-12.9,3.06-17.53-2.52
			C408.87,785.75,409.06,777.94,415.61,772.5z"/>
		<path class="st1" d="M412.97,841.31c0,0,7.73,21.57,14.62,22.74c6.89,1.18,13.24-5.41,17.02-19.06s8.67-21.32,3.31-29.69
			c-5.35-8.36-9.9-9.76-16.09-12.59c-7.4-3.38-13.27,1.82-20.65,4.01c-7.38,2.19-31.64,7.88-16.33,20.13
			S411.51,837.56,412.97,841.31z"/>
	</g>
	<g>
		<path class="st1" d="M510.19,660.73c-8.21,6.82-17.26,9.48-20.2,5.94c-2.94-3.54-3.35-17.58,4.86-24.4
			c8.21-6.82,16.81-13.97,24.88-0.3C522.07,645.93,518.4,653.91,510.19,660.73z"/>
		<path class="st1" d="M514.02,667.4c-8.21,6.82-12.49,15.22-9.54,18.77c2.94,3.54,16.67,6.52,24.88-0.3
			c8.21-6.82,16.81-13.97,4.86-24.4C530.75,658.44,522.23,660.58,514.02,667.4z"/>
		<path class="st1" d="M515.23,723.55c6.55-5.44,14.99-13.2,10.35-18.78c-4.64-5.58-21.96-5.74-28.5-0.3
			c-6.55,5.44-5.38,12.11-0.74,17.7C500.97,727.75,508.68,728.99,515.23,723.55z"/>
		<path class="st1" d="M456.61,641.5c6.55-5.44,15.73-12.31,20.36-6.73c4.64,5.58,1.62,22.64-4.93,28.08s-12.9,3.06-17.53-2.52
			C449.87,654.75,450.06,646.94,456.61,641.5z"/>
		<path class="st1" d="M453.97,710.31c0,0,7.73,21.57,14.62,22.74c6.89,1.18,13.24-5.41,17.02-19.06s8.67-21.32,3.31-29.69
			c-5.35-8.36-9.9-9.76-16.09-12.59c-7.4-3.38-13.27,1.82-20.65,4.01c-7.38,2.19-31.64,7.88-16.33,20.13
			S452.51,706.56,453.97,710.31z"/>
	</g>
	<g>
		<path class="st1" d="M650.19,698.73c-8.21,6.82-17.26,9.48-20.2,5.94c-2.94-3.54-3.35-17.58,4.86-24.4
			c8.21-6.82,16.81-13.97,24.88-0.3C662.07,683.93,658.4,691.91,650.19,698.73z"/>
		<path class="st1" d="M654.02,705.4c-8.21,6.82-12.49,15.22-9.54,18.77c2.94,3.54,16.67,6.52,24.88-0.3
			c8.21-6.82,16.81-13.97,4.86-24.4C670.75,696.44,662.23,698.58,654.02,705.4z"/>
		<path class="st1" d="M655.23,761.55c6.55-5.44,14.99-13.2,10.35-18.78c-4.64-5.58-21.96-5.74-28.5-0.3
			c-6.55,5.44-5.38,12.11-0.74,17.7C640.97,765.75,648.68,766.99,655.23,761.55z"/>
		<path class="st1" d="M596.61,679.5c6.55-5.44,15.73-12.31,20.36-6.73c4.64,5.58,1.62,22.64-4.93,28.08s-12.9,3.06-17.53-2.52
			S590.06,684.94,596.61,679.5z"/>
		<path class="st1" d="M593.97,748.31c0,0,7.73,21.57,14.62,22.74c6.89,1.18,13.24-5.41,17.02-19.06s8.67-21.32,3.31-29.69
			c-5.35-8.36-9.9-9.76-16.09-12.59c-7.4-3.38-13.27,1.82-20.65,4.01c-7.38,2.19-31.64,7.88-16.33,20.13
			C591.16,746.11,592.51,744.56,593.97,748.31z"/>
	</g>
	<g>
		<path class="st1" d="M684.19,579.73c-8.21,6.82-17.26,9.48-20.2,5.94c-2.94-3.54-3.35-17.58,4.86-24.4
			c8.21-6.82,16.81-13.97,24.88-0.3C696.07,564.93,692.4,572.91,684.19,579.73z"/>
		<path class="st1" d="M688.02,586.4c-8.21,6.82-12.49,15.22-9.54,18.77c2.94,3.54,16.67,6.52,24.88-0.3
			c8.21-6.82,16.81-13.97,4.86-24.4C704.75,577.44,696.23,579.58,688.02,586.4z"/>
		<path class="st1" d="M689.23,642.55c6.55-5.44,14.99-13.2,10.35-18.78c-4.64-5.58-21.96-5.74-28.5-0.3
			c-6.55,5.44-5.38,12.11-0.74,17.7C674.97,646.75,682.68,647.99,689.23,642.55z"/>
		<path class="st1" d="M630.61,560.5c6.55-5.44,15.73-12.31,20.36-6.73c4.64,5.58,1.62,22.64-4.93,28.08s-12.9,3.06-17.53-2.52
			S624.06,565.94,630.61,560.5z"/>
		<path class="st1" d="M627.97,629.31c0,0,7.73,21.57,14.62,22.74c6.89,1.18,13.24-5.41,17.02-19.06s8.67-21.32,3.31-29.69
			c-5.35-8.36-9.9-9.76-16.09-12.59c-7.4-3.38-13.27,1.82-20.65,4.01c-7.38,2.19-31.64,7.88-16.33,20.13
			C625.16,627.11,626.51,625.56,627.97,629.31z"/>
	</g>
	<g>
		<path class="st1" d="M824.19,617.73c-8.21,6.82-17.26,9.48-20.2,5.94c-2.94-3.54-3.35-17.58,4.86-24.4
			c8.21-6.82,16.81-13.97,24.88-0.3C836.07,602.93,832.4,610.91,824.19,617.73z"/>
		<path class="st1" d="M828.02,624.4c-8.21,6.82-12.49,15.22-9.54,18.77c2.94,3.54,16.67,6.52,24.88-0.3
			c8.21-6.82,16.81-13.97,4.86-24.4C844.75,615.44,836.23,617.58,828.02,624.4z"/>
		<path class="st1" d="M829.23,680.55c6.55-5.44,14.99-13.2,10.35-18.78c-4.64-5.58-21.96-5.74-28.5-0.3
			c-6.55,5.44-5.38,12.11-0.74,17.7C814.97,684.75,822.68,685.99,829.23,680.55z"/>
		<path class="st1" d="M770.61,598.5c6.55-5.44,15.73-12.31,20.36-6.73c4.64,5.58,1.62,22.64-4.93,28.08s-12.9,3.06-17.53-2.52
			S764.06,603.94,770.61,598.5z"/>
		<path class="st1" d="M767.97,667.31c0,0,7.73,21.57,14.62,22.74c6.89,1.18,13.24-5.41,17.02-19.06s8.67-21.32,3.31-29.69
			c-5.35-8.36-9.9-9.76-16.09-12.59c-7.4-3.38-13.27,1.82-20.65,4.01c-7.38,2.19-31.64,7.88-16.33,20.13
			C765.16,665.11,766.51,663.56,767.97,667.31z"/>
	</g>
	<g>
		<path class="st1" d="M881.19,483.73c-8.21,6.82-17.26,9.48-20.2,5.94c-2.94-3.54-3.35-17.58,4.86-24.4
			c8.21-6.82,16.81-13.97,24.88-0.3C893.07,468.93,889.4,476.91,881.19,483.73z"/>
		<path class="st1" d="M885.02,490.4c-8.21,6.82-12.49,15.22-9.54,18.77c2.94,3.54,16.67,6.52,24.88-0.3
			c8.21-6.82,16.81-13.97,4.86-24.4C901.75,481.44,893.23,483.58,885.02,490.4z"/>
		<path class="st1" d="M886.23,546.55c6.55-5.44,14.99-13.2,10.35-18.78c-4.64-5.58-21.96-5.74-28.5-0.3
			c-6.55,5.44-5.38,12.11-0.74,17.7C871.97,550.75,879.68,551.99,886.23,546.55z"/>
		<path class="st1" d="M827.61,464.5c6.55-5.44,15.73-12.31,20.36-6.73c4.64,5.58,1.62,22.64-4.93,28.08
			c-6.55,5.44-12.9,3.06-17.53-2.52C820.87,477.75,821.06,469.94,827.61,464.5z"/>
		<path class="st1" d="M824.97,533.31c0,0,7.73,21.57,14.62,22.74c6.89,1.18,13.24-5.41,17.02-19.06s8.67-21.32,3.31-29.69
			c-5.35-8.36-9.9-9.76-16.09-12.59c-7.4-3.38-13.27,1.82-20.65,4.01c-7.38,2.19-31.64,7.88-16.33,20.13
			C822.16,531.11,823.51,529.56,824.97,533.31z"/>
	</g>
	<g>
		<path class="st1" d="M1021.19,521.73c-8.21,6.82-17.26,9.48-20.2,5.94c-2.94-3.54-3.35-17.58,4.86-24.4
			c8.21-6.82,16.81-13.97,24.88-0.3C1033.07,506.93,1029.4,514.91,1021.19,521.73z"/>
		<path class="st1" d="M1025.02,528.4c-8.21,6.82-12.49,15.22-9.54,18.77c2.94,3.54,16.67,6.52,24.88-0.3
			c8.21-6.82,16.81-13.97,4.86-24.4C1041.75,519.44,1033.23,521.58,1025.02,528.4z"/>
		<path class="st1" d="M1026.23,584.55c6.55-5.44,14.99-13.2,10.35-18.78c-4.64-5.58-21.96-5.74-28.5-0.3
			c-6.55,5.44-5.38,12.11-0.74,17.7C1011.97,588.75,1019.68,589.99,1026.23,584.55z"/>
		<path class="st1" d="M967.61,502.5c6.55-5.44,15.73-12.31,20.36-6.73c4.64,5.58,1.62,22.64-4.93,28.08s-12.9,3.06-17.53-2.52
			S961.06,507.94,967.61,502.5z"/>
		<path class="st1" d="M964.97,571.31c0,0,7.73,21.57,14.62,22.74c6.89,1.18,13.24-5.41,17.02-19.06s8.67-21.32,3.31-29.69
			c-5.35-8.36-9.9-9.76-16.09-12.59c-7.4-3.38-13.27,1.82-20.65,4.01c-7.38,2.19-31.64,7.88-16.33,20.13
			C962.16,569.11,963.51,567.56,964.97,571.31z"/>
	</g>
	<g>
		<path class="st1" d="M1069.19,415.73c-8.21,6.82-17.26,9.48-20.2,5.94c-2.94-3.54-3.35-17.58,4.86-24.4
			c8.21-6.82,16.81-13.97,24.88-0.3C1081.07,400.93,1077.4,408.91,1069.19,415.73z"/>
		<path class="st1" d="M1073.02,422.4c-8.21,6.82-12.49,15.22-9.54,18.77c2.94,3.54,16.67,6.52,24.88-0.3
			c8.21-6.82,16.81-13.97,4.86-24.4C1089.75,413.44,1081.23,415.58,1073.02,422.4z"/>
		<path class="st1" d="M1074.23,478.55c6.55-5.44,14.99-13.2,10.35-18.78c-4.64-5.58-21.96-5.74-28.5-0.3
			c-6.55,5.44-5.38,12.11-0.74,17.7C1059.97,482.75,1067.68,483.99,1074.23,478.55z"/>
		<path class="st1" d="M1015.61,396.5c6.55-5.44,15.73-12.31,20.36-6.73c4.64,5.58,1.62,22.64-4.93,28.08
			c-6.55,5.44-12.9,3.06-17.53-2.52C1008.87,409.75,1009.06,401.94,1015.61,396.5z"/>
		<path class="st1" d="M1012.97,465.31c0,0,7.73,21.57,14.62,22.74c6.89,1.18,13.24-5.41,17.02-19.06s8.67-21.32,3.31-29.69
			c-5.35-8.36-9.9-9.76-16.09-12.59c-7.4-3.38-13.27,1.82-20.65,4.01c-7.38,2.19-31.64,7.88-16.33,20.13
			C1010.16,463.11,1011.51,461.56,1012.97,465.31z"/>
	</g>
	<g>
		<path class="st1" d="M1209.19,453.73c-8.21,6.82-17.26,9.48-20.2,5.94c-2.94-3.54-3.35-17.58,4.86-24.4
			c8.21-6.82,16.81-13.97,24.88-0.3C1221.07,438.93,1217.4,446.91,1209.19,453.73z"/>
		<path class="st1" d="M1213.02,460.4c-8.21,6.82-12.49,15.22-9.54,18.77c2.94,3.54,16.67,6.52,24.88-0.3
			c8.21-6.82,16.81-13.97,4.86-24.4C1229.75,451.44,1221.23,453.58,1213.02,460.4z"/>
		<path class="st1" d="M1214.23,516.55c6.55-5.44,14.99-13.2,10.35-18.78c-4.64-5.58-21.96-5.74-28.5-0.3
			c-6.55,5.44-5.38,12.11-0.74,17.7C1199.97,520.75,1207.68,521.99,1214.23,516.55z"/>
		<path class="st1" d="M1155.61,434.5c6.55-5.44,15.72-12.31,20.36-6.73c4.64,5.58,1.62,22.64-4.93,28.08
			c-6.55,5.44-12.9,3.06-17.53-2.52C1148.87,447.75,1149.06,439.94,1155.61,434.5z"/>
		<path class="st1" d="M1152.97,503.31c0,0,7.73,21.57,14.62,22.74c6.89,1.18,13.24-5.41,17.02-19.06
			c3.78-13.65,8.67-21.32,3.31-29.69c-5.35-8.36-9.9-9.76-16.09-12.59c-7.4-3.38-13.27,1.82-20.65,4.01
			c-7.38,2.19-31.64,7.88-16.33,20.13C1150.16,501.11,1151.51,499.56,1152.97,503.31z"/>
	</g>
	<g>
		<path class="st1" d="M1229.19,319.73c-8.21,6.82-17.26,9.48-20.2,5.94c-2.94-3.54-3.35-17.58,4.86-24.4
			c8.21-6.82,16.81-13.97,24.88-0.3C1241.07,304.93,1237.4,312.91,1229.19,319.73z"/>
		<path class="st1" d="M1233.02,326.4c-8.21,6.82-12.49,15.22-9.54,18.77c2.94,3.54,16.67,6.52,24.88-0.3
			c8.21-6.82,16.81-13.97,4.86-24.4C1249.75,317.44,1241.23,319.58,1233.02,326.4z"/>
		<path class="st1" d="M1234.23,382.55c6.55-5.44,14.99-13.2,10.35-18.78c-4.64-5.58-21.96-5.74-28.5-0.3
			c-6.55,5.44-5.38,12.11-0.74,17.7C1219.97,386.75,1227.68,387.99,1234.23,382.55z"/>
		<path class="st1" d="M1175.61,300.5c6.55-5.44,15.72-12.31,20.36-6.73c4.64,5.58,1.62,22.64-4.93,28.08
			c-6.55,5.44-12.9,3.06-17.53-2.52C1168.87,313.75,1169.06,305.94,1175.61,300.5z"/>
		<path class="st1" d="M1172.97,369.31c0,0,7.73,21.57,14.62,22.74c6.89,1.18,13.24-5.41,17.02-19.06s8.67-21.32,3.31-29.69
			c-5.35-8.36-9.9-9.76-16.09-12.59c-7.4-3.38-13.27,1.82-20.65,4.01c-7.38,2.19-31.64,7.88-16.33,20.13
			C1170.16,367.11,1171.51,365.56,1172.97,369.31z"/>
	</g>
	<g>
		<path class="st1" d="M1369.19,357.73c-8.21,6.82-17.26,9.48-20.2,5.94c-2.94-3.54-3.35-17.58,4.86-24.4
			c8.21-6.82,16.81-13.97,24.88-0.3C1381.07,342.93,1377.4,350.91,1369.19,357.73z"/>
		<path class="st1" d="M1373.02,364.4c-8.21,6.82-12.49,15.22-9.54,18.77c2.94,3.54,16.67,6.52,24.88-0.3
			c8.21-6.82,16.81-13.97,4.86-24.4C1389.75,355.44,1381.23,357.58,1373.02,364.4z"/>
		<path class="st1" d="M1374.23,420.55c6.55-5.44,14.99-13.2,10.35-18.78c-4.64-5.58-21.96-5.74-28.5-0.3
			c-6.55,5.44-5.38,12.11-0.74,17.7C1359.97,424.75,1367.68,425.99,1374.23,420.55z"/>
		<path class="st1" d="M1315.61,338.5c6.55-5.44,15.72-12.31,20.36-6.73c4.64,5.58,1.62,22.64-4.93,28.08
			c-6.55,5.44-12.9,3.06-17.53-2.52C1308.87,351.75,1309.06,343.94,1315.61,338.5z"/>
		<path class="st1" d="M1312.97,407.31c0,0,7.73,21.57,14.62,22.74c6.89,1.18,13.24-5.41,17.02-19.06s8.67-21.32,3.31-29.69
			c-5.35-8.36-9.9-9.76-16.09-12.59c-7.4-3.38-13.27,1.82-20.65,4.01c-7.38,2.19-31.64,7.88-16.33,20.13
			C1310.16,405.11,1311.51,403.56,1312.97,407.31z"/>
	</g>
	<g>
		<path class="st1" d="M1369.19,246.73c-8.21,6.82-17.26,9.48-20.2,5.94c-2.94-3.54-3.35-17.58,4.86-24.4s16.81-13.97,24.88-0.3
			C1381.07,231.93,1377.4,239.91,1369.19,246.73z"/>
		<path class="st1" d="M1373.02,253.4c-8.21,6.82-12.49,15.22-9.54,18.77c2.94,3.54,16.67,6.52,24.88-0.3
			c8.21-6.82,16.81-13.97,4.86-24.4C1389.75,244.44,1381.23,246.58,1373.02,253.4z"/>
		<path class="st1" d="M1374.23,309.55c6.55-5.44,14.99-13.2,10.35-18.78c-4.64-5.58-21.96-5.74-28.5-0.3
			c-6.55,5.44-5.38,12.11-0.74,17.7C1359.97,313.75,1367.68,314.99,1374.23,309.55z"/>
		<path class="st1" d="M1315.61,227.5c6.55-5.44,15.72-12.31,20.36-6.73c4.64,5.58,1.62,22.64-4.93,28.08
			c-6.55,5.44-12.9,3.06-17.53-2.52C1308.87,240.75,1309.06,232.94,1315.61,227.5z"/>
		<path class="st1" d="M1312.97,296.31c0,0,7.73,21.57,14.62,22.74c6.89,1.18,13.24-5.41,17.02-19.06s8.67-21.32,3.31-29.69
			c-5.35-8.36-9.9-9.76-16.09-12.59c-7.4-3.38-13.27,1.82-20.65,4.01c-7.38,2.19-31.64,7.88-16.33,20.13
			C1310.16,294.11,1311.51,292.56,1312.97,296.31z"/>
	</g>
	<g>
		<path class="st1" d="M1509.19,284.73c-8.21,6.82-17.26,9.48-20.2,5.94c-2.94-3.54-3.35-17.58,4.86-24.4
			c8.21-6.82,16.81-13.97,24.88-0.3C1521.07,269.93,1517.4,277.91,1509.19,284.73z"/>
		<path class="st1" d="M1513.02,291.4c-8.21,6.82-12.49,15.22-9.54,18.77c2.94,3.54,16.67,6.52,24.88-0.3
			c8.21-6.82,16.81-13.97,4.86-24.4C1529.75,282.44,1521.23,284.58,1513.02,291.4z"/>
		<path class="st1" d="M1514.23,347.55c6.55-5.44,14.99-13.2,10.35-18.78c-4.64-5.58-21.96-5.74-28.5-0.3
			c-6.55,5.44-5.38,12.11-0.74,17.7C1499.97,351.75,1507.68,352.99,1514.23,347.55z"/>
		<path class="st1" d="M1455.61,265.5c6.55-5.44,15.72-12.31,20.36-6.73c4.64,5.58,1.62,22.64-4.93,28.08
			c-6.55,5.44-12.9,3.06-17.53-2.52C1448.87,278.75,1449.06,270.94,1455.61,265.5z"/>
		<path class="st1" d="M1452.97,334.31c0,0,7.73,21.57,14.62,22.74c6.89,1.18,13.24-5.41,17.02-19.06s8.67-21.32,3.31-29.69
			c-5.35-8.36-9.9-9.76-16.09-12.59c-7.4-3.38-13.27,1.82-20.65,4.01c-7.38,2.19-31.64,7.88-16.33,20.13
			C1450.16,332.11,1451.51,330.56,1452.97,334.31z"/>
	</g>
	<g>
		<path class="st1" d="M1566.19,164.73c-8.21,6.82-17.26,9.48-20.2,5.94c-2.94-3.54-3.35-17.58,4.86-24.4s16.81-13.97,24.88-0.3
			C1578.07,149.93,1574.4,157.91,1566.19,164.73z"/>
		<path class="st1" d="M1570.02,171.4c-8.21,6.82-12.49,15.22-9.54,18.77c2.94,3.54,16.67,6.52,24.88-0.3
			c8.21-6.82,16.81-13.97,4.86-24.4C1586.75,162.44,1578.23,164.58,1570.02,171.4z"/>
		<path class="st1" d="M1571.23,227.55c6.55-5.44,14.99-13.2,10.35-18.78s-21.96-5.74-28.5-0.3c-6.55,5.44-5.38,12.11-0.74,17.7
			C1556.97,231.75,1564.68,232.99,1571.23,227.55z"/>
		<path class="st1" d="M1512.61,145.5c6.55-5.44,15.72-12.31,20.36-6.73c4.64,5.58,1.62,22.64-4.93,28.08
			c-6.55,5.44-12.9,3.06-17.53-2.52C1505.87,158.75,1506.06,150.94,1512.61,145.5z"/>
		<path class="st1" d="M1509.97,214.31c0,0,7.73,21.57,14.62,22.74c6.89,1.18,13.24-5.41,17.02-19.06s8.67-21.32,3.31-29.69
			c-5.35-8.36-9.9-9.76-16.09-12.59c-7.4-3.38-13.27,1.82-20.65,4.01c-7.38,2.19-31.64,7.88-16.33,20.13
			C1507.16,212.11,1508.51,210.56,1509.97,214.31z"/>
	</g>
	<g>
		<path class="st1" d="M1706.19,202.73c-8.21,6.82-17.26,9.48-20.2,5.94c-2.94-3.54-3.35-17.58,4.86-24.4s16.81-13.97,24.88-0.3
			C1718.07,187.93,1714.4,195.91,1706.19,202.73z"/>
		<path class="st1" d="M1710.02,209.4c-8.21,6.82-12.49,15.22-9.54,18.77c2.94,3.54,16.67,6.52,24.88-0.3
			c8.21-6.82,16.81-13.97,4.86-24.4C1726.75,200.44,1718.23,202.58,1710.02,209.4z"/>
		<path class="st1" d="M1711.23,265.55c6.55-5.44,14.99-13.2,10.35-18.78s-21.96-5.74-28.5-0.3c-6.55,5.44-5.38,12.11-0.74,17.7
			C1696.97,269.75,1704.68,270.99,1711.23,265.55z"/>
		<path class="st1" d="M1652.61,183.5c6.55-5.44,15.72-12.31,20.36-6.73c4.64,5.58,1.62,22.64-4.93,28.08
			c-6.55,5.44-12.9,3.06-17.53-2.52C1645.87,196.75,1646.06,188.94,1652.61,183.5z"/>
		<path class="st1" d="M1649.97,252.31c0,0,7.73,21.57,14.62,22.74c6.89,1.18,13.24-5.41,17.02-19.06
			c3.78-13.65,8.67-21.32,3.31-29.69c-5.35-8.36-9.9-9.76-16.09-12.59c-7.4-3.38-13.27,1.82-20.65,4.01
			c-7.38,2.19-31.64,7.88-16.33,20.13C1647.16,250.11,1648.51,248.56,1649.97,252.31z"/>
	</g>
	<g>
		<path class="st1" d="M1754.19,80.73c-8.21,6.82-17.26,9.48-20.2,5.94c-2.94-3.54-3.35-17.58,4.86-24.4s16.81-13.97,24.88-0.3
			C1766.07,65.93,1762.4,73.91,1754.19,80.73z"/>
		<path class="st1" d="M1758.02,87.4c-8.21,6.82-12.49,15.22-9.54,18.77c2.94,3.54,16.67,6.52,24.88-0.3
			c8.21-6.82,16.81-13.97,4.86-24.4C1774.75,78.44,1766.23,80.58,1758.02,87.4z"/>
		<path class="st1" d="M1759.23,143.55c6.55-5.44,14.99-13.2,10.35-18.78c-4.64-5.58-21.96-5.74-28.5-0.3
			c-6.55,5.44-5.38,12.11-0.74,17.7C1744.97,147.75,1752.68,148.99,1759.23,143.55z"/>
		<path class="st1" d="M1700.61,61.5c6.55-5.44,15.72-12.31,20.36-6.73s1.62,22.64-4.93,28.08c-6.55,5.44-12.9,3.06-17.53-2.52
			C1693.87,74.75,1694.06,66.94,1700.61,61.5z"/>
		<path class="st1" d="M1697.97,130.31c0,0,7.73,21.57,14.62,22.74c6.89,1.18,13.24-5.41,17.02-19.06s8.67-21.32,3.31-29.69
			c-5.35-8.36-9.9-9.76-16.09-12.59c-7.4-3.38-13.27,1.82-20.65,4.01s-31.64,7.88-16.33,20.13
			C1695.16,128.11,1696.51,126.56,1697.97,130.31z"/>
	</g>
	<g>
		<path class="st1" d="M1860.19,137.73c-8.21,6.82-17.26,9.48-20.2,5.94c-2.94-3.54-3.35-17.58,4.86-24.4
			c8.21-6.82,16.81-13.97,24.88-0.3C1872.07,122.93,1868.4,130.91,1860.19,137.73z"/>
		<path class="st1" d="M1864.02,144.4c-8.21,6.82-12.49,15.22-9.54,18.77c2.94,3.54,16.67,6.52,24.88-0.3
			c8.21-6.82,16.81-13.97,4.86-24.4C1880.75,135.44,1872.23,137.58,1864.02,144.4z"/>
		<path class="st1" d="M1865.23,200.55c6.55-5.44,14.99-13.2,10.35-18.78s-21.96-5.74-28.5-0.3c-6.55,5.44-5.38,12.11-0.74,17.7
			C1850.97,204.75,1858.68,205.99,1865.23,200.55z"/>
		<path class="st1" d="M1806.61,118.5c6.55-5.44,15.72-12.31,20.36-6.73c4.64,5.58,1.62,22.64-4.93,28.08
			c-6.55,5.44-12.9,3.06-17.53-2.52C1799.87,131.75,1800.06,123.94,1806.61,118.5z"/>
		<path class="st1" d="M1803.97,187.31c0,0,7.73,21.57,14.62,22.74c6.89,1.18,13.24-5.41,17.02-19.06s8.67-21.32,3.31-29.69
			c-5.35-8.36-9.9-9.76-16.09-12.59c-7.4-3.38-13.27,1.82-20.65,4.01c-7.38,2.19-31.64,7.88-16.33,20.13
			C1801.16,185.11,1802.51,183.56,1803.97,187.31z"/>
	</g>
</g>
</svg>
