<?xml version="1.0" encoding="utf-8"?>
<!-- Generator: Adobe Illustrator 24.0.1, SVG Export Plug-In . SVG Version: 6.00 Build 0)  -->
<svg version="1.1" xmlns="http://www.w3.org/2000/svg" xmlns:xlink="http://www.w3.org/1999/xlink" x="0px" y="0px"
	 viewBox="0 0 1920 1080" style="enable-background:new 0 0 1920 1080;" xml:space="preserve">
<style type="text/css">
	.st0{fill:#EE9B00;}
	.st1{fill:#FFFEFD;}
</style>
<g id="Camada_1">
	<g>
		<rect x="0.5" y="0.5" class="st0" width="1919" height="1079"/>
		<path d="M1919,1v1078H1V1H1919 M1920,0H0v1080h1920V0L1920,0z"/>
	</g>
</g>
<g id="Camada_2">
	<g>
		<path class="st1" d="M-131.47,784.32c-6.87,10.74-15.94,16.87-20.27,13.71s-9.17-19.48-2.3-30.22
			c6.87-10.74,14.06-21.98,27.16-8.67C-123.07,763.01-124.6,773.59-131.47,784.32z"/>
		<path class="st1" d="M-125.19,790.86c-6.87,10.74-8.92,22.01-4.59,25.18c4.33,3.17,20.3,2.07,27.16-8.67
			c6.87-10.74,14.06-21.98-2.3-30.22C-109.66,774.77-118.32,780.13-125.19,790.86z"/>
		<path class="st1" d="M-106.31,856.25c5.47-8.56,12.3-20.47,5.47-25.47c-6.82-4.99-25.85,0.61-31.32,9.17
			c-5.47,8.56-2.11,15.99,4.72,20.98C-120.62,865.93-111.79,864.82-106.31,856.25z"/>
		<path class="st1" d="M-196.17,779.7c5.47-8.56,13.38-19.68,20.2-14.69c6.82,4.99,8.84,25.98,3.37,34.55s-13.17,7.9-19.99,2.91
			S-201.64,788.27-196.17,779.7z"/>
		<path class="st1" d="M-177.56,861.21c0,0,15.21,22.69,23.12,21.76c7.91-0.92,12.81-10.77,12.69-28.02
			c-0.13-17.25,2.83-27.88-5.65-35.89c-8.48-8.01-13.89-8.13-21.56-9.37c-9.17-1.48-13.97,6.57-21.37,11.6
			c-7.4,5.03-32.2,19.81-11.6,29.05S-180.33,857.3-177.56,861.21z"/>
	</g>
	<g>
		<path class="st1" d="M-24.19,578.01c-6.87,10.74-15.94,16.87-20.27,13.71c-4.33-3.17-9.17-19.48-2.3-30.22
			c6.87-10.74,14.06-21.98,27.16-8.67C-15.79,556.7-17.32,567.28-24.19,578.01z"/>
		<path class="st1" d="M-17.91,584.55c-6.87,10.74-8.92,22.01-4.59,25.18c4.33,3.17,20.3,2.07,27.16-8.67
			c6.87-10.74,14.06-21.98-2.3-30.22C-2.38,568.46-11.04,573.82-17.91,584.55z"/>
		<path class="st1" d="M0.97,649.94c5.47-8.56,12.3-20.47,5.47-25.47s-25.85,0.61-31.32,9.17s-2.11,15.99,4.72,20.98
			S-4.51,658.51,0.97,649.94z"/>
		<path class="st1" d="M-88.89,573.39c5.47-8.56,13.38-19.68,20.2-14.69c6.82,4.99,8.84,25.98,3.37,34.55s-13.17,7.9-19.99,2.91
			C-92.13,591.16-94.36,581.96-88.89,573.39z"/>
		<path class="st1" d="M-70.28,654.9c0,0,15.21,22.69,23.12,21.76s12.81-10.77,12.69-28.02c-0.13-17.25,2.83-27.88-5.65-35.89
			c-8.48-8.01-13.89-8.13-21.56-9.37c-9.17-1.48-13.97,6.57-21.37,11.6s-32.2,19.81-11.6,29.05
			C-74.05,653.26-73.06,650.99-70.28,654.9z"/>
	</g>
	<g>
		<path class="st1" d="M50.53,751.61c-6.87,10.74-15.94,16.87-20.27,13.71c-4.33-3.17-9.17-19.48-2.3-30.22s14.06-21.98,27.16-8.67
			C58.92,730.3,57.39,740.88,50.53,751.61z"/>
		<path class="st1" d="M56.81,758.15c-6.87,10.74-8.92,22.01-4.59,25.18s20.3,2.07,27.16-8.67c6.87-10.74,14.06-21.98-2.3-30.22
			C72.33,742.06,63.67,747.42,56.81,758.15z"/>
		<path class="st1" d="M75.68,823.54c5.47-8.56,12.3-20.47,5.47-25.47c-6.82-4.99-25.85,0.61-31.32,9.17s-2.11,15.99,4.72,20.98
			S70.21,832.11,75.68,823.54z"/>
		<path class="st1" d="M-14.17,746.99c5.47-8.56,13.38-19.68,20.2-14.69s8.84,25.98,3.37,34.55s-13.17,7.9-19.99,2.91
			S-19.65,755.56-14.17,746.99z"/>
		<path class="st1" d="M4.44,828.5c0,0,15.21,22.69,23.12,21.76s12.81-10.77,12.69-28.02c-0.13-17.25,2.83-27.88-5.65-35.89
			c-8.48-8.01-13.89-8.13-21.56-9.37c-9.17-1.48-13.97,6.57-21.37,11.6c-7.4,5.03-32.2,19.81-11.6,29.05S1.66,824.59,4.44,828.5z"/>
	</g>
	<g>
		<path class="st1" d="M159.68,561.21c-6.87,10.74-15.94,16.87-20.27,13.71s-9.17-19.48-2.3-30.22
			c6.87-10.74,14.06-21.98,27.16-8.67C168.07,539.89,166.54,550.47,159.68,561.21z"/>
		<path class="st1" d="M165.96,567.75c-6.87,10.74-8.92,22.01-4.59,25.18s20.3,2.07,27.16-8.67c6.87-10.74,14.06-21.98-2.3-30.22
			C181.48,551.65,172.82,557.01,165.96,567.75z"/>
		<path class="st1" d="M184.83,633.14c5.47-8.56,12.3-20.47,5.47-25.47s-25.85,0.61-31.32,9.17s-2.11,15.99,4.72,20.98
			C170.52,642.81,179.36,641.7,184.83,633.14z"/>
		<path class="st1" d="M94.98,556.59c5.47-8.56,13.38-19.68,20.2-14.69c6.82,4.99,8.84,25.98,3.37,34.55
			c-5.47,8.56-13.17,7.9-19.99,2.91C91.73,574.36,89.5,565.15,94.98,556.59z"/>
		<path class="st1" d="M113.59,638.09c0,0,15.21,22.69,23.12,21.76c7.91-0.92,12.81-10.77,12.69-28.02
			c-0.13-17.25,2.83-27.88-5.65-35.89c-8.48-8.01-13.89-8.13-21.56-9.37c-9.17-1.48-13.97,6.57-21.37,11.6
			c-7.4,5.03-32.2,19.81-11.6,29.05S110.81,634.18,113.59,638.09z"/>
	</g>
	<g>
		<path class="st1" d="M163.67,394.01c-6.87,10.74-15.94,16.87-20.27,13.71c-4.33-3.17-9.17-19.48-2.3-30.22
			c6.87-10.74,14.06-21.98,27.16-8.67C172.06,372.69,170.53,383.27,163.67,394.01z"/>
		<path class="st1" d="M169.95,400.55c-6.87,10.74-8.92,22.01-4.59,25.18c4.33,3.17,20.3,2.07,27.16-8.67
			c6.87-10.74,14.06-21.98-2.3-30.22C185.47,384.45,176.81,389.81,169.95,400.55z"/>
		<path class="st1" d="M188.82,465.94c5.47-8.56,12.3-20.47,5.47-25.47s-25.85,0.61-31.32,9.17s-2.11,15.99,4.72,20.98
			S183.34,474.5,188.82,465.94z"/>
		<path class="st1" d="M98.96,389.39c5.47-8.56,13.38-19.68,20.2-14.69c6.82,4.99,8.84,25.98,3.37,34.55
			c-5.47,8.56-13.17,7.9-19.99,2.91C95.72,407.16,93.49,397.95,98.96,389.39z"/>
		<path class="st1" d="M117.58,470.89c0,0,15.21,22.69,23.12,21.76c7.91-0.92,12.81-10.77,12.69-28.02
			c-0.13-17.25,2.83-27.88-5.65-35.89c-8.48-8.01-13.89-8.13-21.56-9.37c-9.17-1.48-13.97,6.57-21.37,11.6
			c-7.4,5.03-32.2,19.81-11.6,29.05C113.81,469.26,114.8,466.98,117.58,470.89z"/>
	</g>
	<g>
		<path class="st1" d="M328.9,391.75c-6.87,10.74-15.94,16.87-20.27,13.71c-4.33-3.17-9.17-19.48-2.3-30.22
			c6.87-10.74,14.06-21.98,27.16-8.67C337.3,370.44,335.77,381.01,328.9,391.75z"/>
		<path class="st1" d="M335.19,398.29c-6.87,10.74-8.92,22.01-4.59,25.18c4.33,3.17,20.3,2.07,27.16-8.67s14.06-21.98-2.3-30.22
			C350.71,382.19,342.05,387.55,335.19,398.29z"/>
		<path class="st1" d="M354.06,463.68c5.47-8.56,12.3-20.47,5.47-25.47c-6.82-4.99-25.85,0.61-31.32,9.17s-2.11,15.99,4.72,20.98
			C339.75,473.36,348.58,472.24,354.06,463.68z"/>
		<path class="st1" d="M264.2,387.13c5.47-8.56,13.38-19.68,20.2-14.69s8.84,25.98,3.37,34.55c-5.47,8.56-13.17,7.9-19.99,2.91
			C260.96,404.9,258.73,395.69,264.2,387.13z"/>
		<path class="st1" d="M282.81,468.64c0,0,15.21,22.69,23.12,21.76c7.91-0.92,12.81-10.77,12.69-28.02s2.83-27.88-5.65-35.89
			c-8.48-8.01-13.89-8.13-21.56-9.37c-9.17-1.48-13.97,6.57-21.37,11.6c-7.4,5.03-32.2,19.81-11.6,29.05
			S280.04,464.73,282.81,468.64z"/>
	</g>
	<g>
		<path class="st1" d="M328.97,240.95c-6.87,10.74-15.94,16.87-20.27,13.71s-9.17-19.48-2.3-30.22
			c6.87-10.74,14.06-21.98,27.16-8.67C337.37,219.64,335.84,230.21,328.97,240.95z"/>
		<path class="st1" d="M335.25,247.49c-6.87,10.74-8.92,22.01-4.59,25.18c4.33,3.17,20.3,2.07,27.16-8.67
			c6.87-10.74,14.06-21.98-2.3-30.22C350.78,231.39,342.12,236.75,335.25,247.49z"/>
		<path class="st1" d="M354.13,312.88c5.47-8.56,12.3-20.47,5.47-25.47c-6.82-4.99-25.85,0.61-31.32,9.17s-2.11,15.99,4.72,20.98
			C339.82,322.56,348.65,321.44,354.13,312.88z"/>
		<path class="st1" d="M264.27,236.33c5.47-8.56,13.38-19.68,20.2-14.69s8.84,25.98,3.37,34.55c-5.47,8.56-13.17,7.9-19.99,2.91
			C261.03,254.1,258.8,244.89,264.27,236.33z"/>
		<path class="st1" d="M282.88,317.84c0,0,15.21,22.69,23.12,21.76c7.91-0.92,12.81-10.77,12.69-28.02
			c-0.13-17.25,2.83-27.88-5.65-35.89c-8.48-8.01-13.89-8.13-21.56-9.37c-9.17-1.48-13.97,6.57-21.37,11.6
			c-7.4,5.03-32.2,19.81-11.6,29.05S280.1,313.93,282.88,317.84z"/>
	</g>
	<g>
		<path class="st1" d="M494.21,238.69c-6.87,10.74-15.94,16.87-20.27,13.71c-4.33-3.17-9.17-19.48-2.3-30.22
			c6.87-10.74,14.06-21.98,27.16-8.67C502.61,217.38,501.08,227.96,494.21,238.69z"/>
		<path class="st1" d="M500.49,245.23c-6.87,10.74-8.92,22.01-4.59,25.18c4.33,3.17,20.3,2.07,27.16-8.67
			c6.87-10.74,14.06-21.98-2.3-30.22C516.02,229.14,507.36,234.5,500.49,245.23z"/>
		<path class="st1" d="M519.36,310.62c5.47-8.56,12.3-20.47,5.47-25.47c-6.82-4.99-25.85,0.61-31.32,9.17
			c-5.47,8.56-2.11,15.99,4.72,20.98S513.89,319.19,519.36,310.62z"/>
		<path class="st1" d="M429.51,234.07c5.47-8.56,13.38-19.68,20.2-14.69s8.84,25.98,3.37,34.55c-5.47,8.56-13.17,7.9-19.99,2.91
			S424.03,242.64,429.51,234.07z"/>
		<path class="st1" d="M448.12,315.58c0,0,15.21,22.69,23.12,21.76c7.91-0.92,12.81-10.77,12.69-28.02s2.83-27.88-5.65-35.89
			s-13.89-8.13-21.56-9.37c-9.17-1.48-13.97,6.57-21.37,11.6c-7.4,5.03-32.2,19.81-11.6,29.05
			C444.35,313.94,445.34,311.67,448.12,315.58z"/>
	</g>
	<g>
		<path class="st1" d="M514.79,62.63c-6.87,10.74-15.94,16.87-20.27,13.71c-4.33-3.17-9.17-19.48-2.3-30.22
			c6.87-10.74,14.06-21.98,27.16-8.67C523.18,41.32,521.66,51.89,514.79,62.63z"/>
		<path class="st1" d="M521.07,69.17c-6.87,10.74-8.92,22.01-4.59,25.18s20.3,2.07,27.16-8.67c6.87-10.74,14.06-21.98-2.3-30.22
			C536.6,53.08,527.94,58.43,521.07,69.17z"/>
		<path class="st1" d="M539.94,134.56c5.47-8.56,12.3-20.47,5.47-25.47c-6.82-4.99-25.85,0.61-31.32,9.17s-2.11,15.99,4.72,20.98
			C525.64,144.24,534.47,143.12,539.94,134.56z"/>
		<path class="st1" d="M450.09,58.01c5.47-8.56,13.38-19.68,20.2-14.69c6.82,4.99,8.84,25.98,3.37,34.55s-13.17,7.9-19.99,2.91
			C446.84,75.78,444.61,66.57,450.09,58.01z"/>
		<path class="st1" d="M468.7,139.52c0,0,15.21,22.69,23.12,21.76c7.91-0.92,12.81-10.77,12.69-28.02s2.83-27.88-5.65-35.89
			s-13.89-8.13-21.56-9.37c-9.17-1.48-13.97,6.57-21.37,11.6c-7.4,5.03-32.2,19.81-11.6,29.05
			C464.93,137.88,465.92,135.61,468.7,139.52z"/>
	</g>
	<g>
		<path class="st1" d="M680.03,60.38c-6.87,10.74-15.94,16.87-20.27,13.71s-9.17-19.48-2.3-30.22c6.87-10.74,14.06-21.98,27.16-8.67
			C688.42,39.06,686.89,49.64,680.03,60.38z"/>
		<path class="st1" d="M686.31,66.92c-6.87,10.74-8.92,22.01-4.59,25.18c4.33,3.17,20.3,2.07,27.16-8.67s14.06-21.98-2.3-30.22
			C701.83,50.82,693.17,56.18,686.31,66.92z"/>
		<path class="st1" d="M705.18,132.31c5.47-8.56,12.3-20.47,5.47-25.47c-6.82-4.99-25.85,0.61-31.32,9.17s-2.11,15.99,4.72,20.98
			C690.87,141.98,699.71,140.87,705.18,132.31z"/>
		<path class="st1" d="M615.33,55.75c5.47-8.56,13.38-19.68,20.2-14.69s8.84,25.98,3.37,34.55s-13.17,7.9-19.99,2.91
			C612.08,73.53,609.85,64.32,615.33,55.75z"/>
		<path class="st1" d="M633.94,137.26c0,0,15.21,22.69,23.12,21.76c7.91-0.92,12.81-10.77,12.69-28.02s2.83-27.88-5.65-35.89
			c-8.48-8.01-13.89-8.13-21.56-9.37c-9.17-1.48-13.97,6.57-21.37,11.6c-7.4,5.03-32.2,19.81-11.6,29.05
			C630.17,135.62,631.16,133.35,633.94,137.26z"/>
	</g>
	<g>
		<path class="st1" d="M699.49-79.87c-6.87,10.74-15.94,16.87-20.27,13.71c-4.33-3.17-9.17-19.48-2.3-30.22s14.06-21.98,27.16-8.67
			C707.89-101.18,706.36-90.61,699.49-79.87z"/>
		<path class="st1" d="M705.78-73.33c-6.87,10.74-8.92,22.01-4.59,25.18c4.33,3.17,20.3,2.07,27.16-8.67
			c6.87-10.74,14.06-21.98-2.3-30.22C721.3-89.43,712.64-84.07,705.78-73.33z"/>
		<path class="st1" d="M724.65-7.94c5.47-8.56,12.3-20.47,5.47-25.47c-6.82-4.99-25.85,0.61-31.32,9.17s-2.11,15.99,4.72,20.98
			C710.34,1.74,719.17,0.62,724.65-7.94z"/>
		<path class="st1" d="M634.79-84.49c5.47-8.56,13.38-19.68,20.2-14.69c6.82,4.99,8.84,25.98,3.37,34.55
			c-5.47,8.56-13.17,7.9-19.99,2.91C631.55-66.72,629.32-75.93,634.79-84.49z"/>
		<path class="st1" d="M653.4-2.98c0,0,15.21,22.69,23.12,21.76c7.91-0.92,12.81-10.77,12.69-28.02s2.83-27.88-5.65-35.89
			c-8.48-8.01-13.89-8.13-21.56-9.37c-9.17-1.48-13.97,6.57-21.37,11.6c-7.4,5.03-32.2,19.81-11.6,29.05
			C649.64-4.62,650.63-6.89,653.4-2.98z"/>
	</g>
	<g>
		<path class="st1" d="M1189.53,1057.32c-6.87,10.74-15.94,16.87-20.27,13.71c-4.33-3.17-9.17-19.48-2.3-30.22
			c6.87-10.74,14.06-21.98,27.16-8.67C1197.93,1036.01,1196.4,1046.59,1189.53,1057.32z"/>
		<path class="st1" d="M1195.81,1063.86c-6.87,10.74-8.92,22.01-4.59,25.18s20.3,2.07,27.16-8.67c6.87-10.74,14.06-21.98-2.3-30.22
			C1211.34,1047.77,1202.68,1053.13,1195.81,1063.86z"/>
		<path class="st1" d="M1214.69,1129.25c5.47-8.56,12.3-20.47,5.47-25.47c-6.82-4.99-25.85,0.61-31.32,9.17
			c-5.47,8.56-2.11,15.99,4.72,20.98C1200.38,1138.93,1209.21,1137.82,1214.69,1129.25z"/>
		<path class="st1" d="M1124.83,1052.7c5.47-8.56,13.38-19.68,20.2-14.69c6.82,4.99,8.84,25.98,3.37,34.55
			c-5.47,8.56-13.17,7.9-19.99,2.91C1121.59,1070.47,1119.36,1061.27,1124.83,1052.7z"/>
		<path class="st1" d="M1143.44,1134.21c0,0,15.21,22.69,23.12,21.76c7.91-0.92,12.81-10.77,12.69-28.02
			c-0.13-17.25,2.83-27.88-5.65-35.89s-13.89-8.13-21.56-9.37c-9.17-1.48-13.97,6.57-21.37,11.6c-7.4,5.03-32.2,19.81-11.6,29.05
			C1139.68,1132.57,1140.67,1130.3,1143.44,1134.21z"/>
	</g>
	<g>
		<path class="st1" d="M1296.81,851.01c-6.87,10.74-15.94,16.87-20.27,13.71c-4.33-3.17-9.17-19.48-2.3-30.22
			c6.87-10.74,14.06-21.98,27.16-8.67C1305.21,829.7,1303.68,840.28,1296.81,851.01z"/>
		<path class="st1" d="M1303.09,857.55c-6.87,10.74-8.92,22.01-4.59,25.18c4.33,3.17,20.3,2.07,27.16-8.67
			c6.87-10.74,14.06-21.98-2.3-30.22C1318.62,841.46,1309.96,846.82,1303.09,857.55z"/>
		<path class="st1" d="M1321.97,922.94c5.47-8.56,12.3-20.47,5.47-25.47c-6.82-4.99-25.85,0.61-31.32,9.17s-2.11,15.99,4.72,20.98
			S1316.49,931.51,1321.97,922.94z"/>
		<path class="st1" d="M1232.11,846.39c5.47-8.56,13.38-19.68,20.2-14.69c6.82,4.99,8.84,25.98,3.37,34.55
			c-5.47,8.56-13.17,7.9-19.99,2.91C1228.87,864.16,1226.64,854.96,1232.11,846.39z"/>
		<path class="st1" d="M1250.72,927.9c0,0,15.21,22.69,23.12,21.76s12.81-10.77,12.69-28.02c-0.13-17.25,2.83-27.88-5.65-35.89
			c-8.48-8.01-13.89-8.13-21.56-9.37c-9.17-1.48-13.97,6.57-21.37,11.6s-32.2,19.81-11.6,29.05
			C1246.95,926.26,1247.94,923.99,1250.72,927.9z"/>
	</g>
	<g>
		<path class="st1" d="M1371.53,1024.61c-6.87,10.74-15.94,16.87-20.27,13.71c-4.33-3.17-9.17-19.48-2.3-30.22
			c6.87-10.74,14.06-21.98,27.16-8.67C1379.92,1003.3,1378.39,1013.88,1371.53,1024.61z"/>
		<path class="st1" d="M1377.81,1031.15c-6.87,10.74-8.92,22.01-4.59,25.18c4.33,3.17,20.3,2.07,27.16-8.67
			c6.87-10.74,14.06-21.98-2.3-30.22C1393.33,1015.06,1384.67,1020.42,1377.81,1031.15z"/>
		<path class="st1" d="M1396.68,1096.54c5.47-8.56,12.3-20.47,5.47-25.47c-6.82-4.99-25.85,0.61-31.32,9.17s-2.11,15.99,4.72,20.98
			C1382.37,1106.22,1391.21,1105.11,1396.68,1096.54z"/>
		<path class="st1" d="M1306.83,1019.99c5.47-8.56,13.38-19.68,20.2-14.69c6.82,4.99,8.84,25.98,3.37,34.55s-13.17,7.9-19.99,2.91
			C1303.58,1037.77,1301.35,1028.56,1306.83,1019.99z"/>
		<path class="st1" d="M1325.44,1101.5c0,0,15.21,22.69,23.12,21.76s12.81-10.77,12.69-28.02s2.83-27.88-5.65-35.89
			c-8.48-8.01-13.89-8.13-21.56-9.37c-9.17-1.48-13.97,6.57-21.37,11.6c-7.4,5.03-32.2,19.81-11.6,29.05
			C1321.67,1099.86,1322.66,1097.59,1325.44,1101.5z"/>
	</g>
	<g>
		<path class="st1" d="M1480.68,834.21c-6.87,10.74-15.94,16.87-20.27,13.71s-9.17-19.48-2.3-30.22
			c6.87-10.74,14.06-21.98,27.16-8.67C1489.07,812.89,1487.54,823.47,1480.68,834.21z"/>
		<path class="st1" d="M1486.96,840.75c-6.87,10.74-8.92,22.01-4.59,25.18s20.3,2.07,27.16-8.67c6.87-10.74,14.06-21.98-2.3-30.22
			C1502.48,824.65,1493.82,830.01,1486.96,840.75z"/>
		<path class="st1" d="M1505.83,906.14c5.47-8.56,12.3-20.47,5.47-25.47c-6.82-4.99-25.85,0.61-31.32,9.17
			c-5.47,8.56-2.11,15.99,4.72,20.98S1500.36,914.7,1505.83,906.14z"/>
		<path class="st1" d="M1415.98,829.59c5.47-8.56,13.38-19.68,20.2-14.69c6.82,4.99,8.84,25.98,3.37,34.55
			c-5.47,8.56-13.17,7.9-19.99,2.91C1412.73,847.36,1410.5,838.15,1415.98,829.59z"/>
		<path class="st1" d="M1434.59,911.09c0,0,15.21,22.69,23.12,21.76c7.91-0.92,12.81-10.77,12.69-28.02
			c-0.13-17.25,2.83-27.88-5.65-35.89c-8.48-8.01-13.89-8.13-21.56-9.37c-9.17-1.48-13.97,6.57-21.37,11.6
			c-7.4,5.03-32.2,19.81-11.6,29.05C1430.82,909.45,1431.81,907.18,1434.59,911.09z"/>
	</g>
	<g>
		<path class="st1" d="M1484.67,667.01c-6.87,10.74-15.94,16.87-20.27,13.71c-4.33-3.17-9.17-19.48-2.3-30.22
			c6.87-10.74,14.06-21.98,27.16-8.67C1493.06,645.69,1491.53,656.27,1484.67,667.01z"/>
		<path class="st1" d="M1490.95,673.55c-6.87,10.74-8.92,22.01-4.59,25.18c4.33,3.17,20.3,2.07,27.16-8.67
			c6.87-10.74,14.06-21.98-2.3-30.22C1506.47,657.45,1497.81,662.81,1490.95,673.55z"/>
		<path class="st1" d="M1509.82,738.94c5.47-8.56,12.3-20.47,5.47-25.47s-25.85,0.61-31.32,9.17c-5.47,8.56-2.11,15.99,4.72,20.98
			C1495.51,748.61,1504.34,747.5,1509.82,738.94z"/>
		<path class="st1" d="M1419.96,662.39c5.47-8.56,13.38-19.68,20.2-14.69s8.84,25.98,3.37,34.55c-5.47,8.56-13.17,7.9-19.99,2.91
			S1414.49,670.95,1419.96,662.39z"/>
		<path class="st1" d="M1438.58,743.89c0,0,15.21,22.69,23.12,21.76c7.91-0.92,12.81-10.77,12.69-28.02
			c-0.13-17.25,2.83-27.88-5.65-35.89c-8.48-8.01-13.89-8.13-21.56-9.37c-9.17-1.48-13.97,6.57-21.37,11.6s-32.2,19.81-11.6,29.05
			C1434.81,742.26,1435.8,739.98,1438.58,743.89z"/>
	</g>
	<g>
		<path class="st1" d="M1649.9,664.75c-6.87,10.74-15.94,16.87-20.27,13.71s-9.17-19.48-2.3-30.22
			c6.87-10.74,14.06-21.98,27.16-8.67C1658.3,643.44,1656.77,654.01,1649.9,664.75z"/>
		<path class="st1" d="M1656.19,671.29c-6.87,10.74-8.92,22.01-4.59,25.18s20.3,2.07,27.16-8.67c6.87-10.74,14.06-21.98-2.3-30.22
			C1671.71,655.19,1663.05,660.55,1656.19,671.29z"/>
		<path class="st1" d="M1675.06,736.68c5.47-8.56,12.3-20.47,5.47-25.47c-6.82-4.99-25.85,0.61-31.32,9.17
			c-5.47,8.56-2.11,15.99,4.72,20.98S1669.58,745.24,1675.06,736.68z"/>
		<path class="st1" d="M1585.2,660.13c5.47-8.56,13.38-19.68,20.2-14.69c6.82,4.99,8.84,25.98,3.37,34.55
			c-5.47,8.56-13.17,7.9-19.99,2.91C1581.96,677.9,1579.73,668.69,1585.2,660.13z"/>
		<path class="st1" d="M1603.81,741.64c0,0,15.21,22.69,23.12,21.76c7.91-0.92,12.81-10.77,12.69-28.02
			c-0.13-17.25,2.83-27.88-5.65-35.89s-13.89-8.13-21.56-9.37c-9.17-1.48-13.97,6.57-21.37,11.6c-7.4,5.03-32.2,19.81-11.6,29.05
			C1600.05,740,1601.04,737.73,1603.81,741.64z"/>
	</g>
	<g>
		<path class="st1" d="M1649.97,513.95c-6.87,10.74-15.94,16.87-20.27,13.71c-4.33-3.17-9.17-19.48-2.3-30.22
			c6.87-10.74,14.06-21.98,27.16-8.67C1658.37,492.64,1656.84,503.21,1649.97,513.95z"/>
		<path class="st1" d="M1656.25,520.49c-6.87,10.74-8.92,22.01-4.59,25.18s20.3,2.07,27.16-8.67c6.87-10.74,14.06-21.98-2.3-30.22
			C1671.78,504.39,1663.12,509.75,1656.25,520.49z"/>
		<path class="st1" d="M1675.13,585.88c5.47-8.56,12.3-20.47,5.47-25.47c-6.82-4.99-25.85,0.61-31.32,9.17s-2.11,15.99,4.72,20.98
			S1669.65,594.44,1675.13,585.88z"/>
		<path class="st1" d="M1585.27,509.33c5.47-8.56,13.38-19.68,20.2-14.69c6.82,4.99,8.84,25.98,3.37,34.55
			c-5.47,8.56-13.17,7.9-19.99,2.91C1582.03,527.1,1579.8,517.89,1585.27,509.33z"/>
		<path class="st1" d="M1603.88,590.84c0,0,15.21,22.69,23.12,21.76c7.91-0.92,12.81-10.77,12.69-28.02
			c-0.13-17.25,2.83-27.88-5.65-35.89c-8.48-8.01-13.89-8.13-21.56-9.37c-9.17-1.48-13.97,6.57-21.37,11.6
			c-7.4,5.03-32.2,19.81-11.6,29.05C1600.12,589.2,1601.1,586.93,1603.88,590.84z"/>
	</g>
	<g>
		<path class="st1" d="M1815.21,511.69c-6.87,10.74-15.94,16.87-20.27,13.71c-4.33-3.17-9.17-19.48-2.3-30.22
			c6.87-10.74,14.06-21.98,27.16-8.67C1823.61,490.38,1822.08,500.96,1815.21,511.69z"/>
		<path class="st1" d="M1821.49,518.23c-6.87,10.74-8.92,22.01-4.59,25.18s20.3,2.07,27.16-8.67c6.87-10.74,14.06-21.98-2.3-30.22
			C1837.02,502.14,1828.36,507.5,1821.49,518.23z"/>
		<path class="st1" d="M1840.36,583.62c5.47-8.56,12.3-20.47,5.47-25.47s-25.85,0.61-31.32,9.17c-5.47,8.56-2.11,15.99,4.72,20.98
			C1826.06,593.3,1834.89,592.19,1840.36,583.62z"/>
		<path class="st1" d="M1750.51,507.07c5.47-8.56,13.38-19.68,20.2-14.69s8.84,25.98,3.37,34.55c-5.47,8.56-13.17,7.9-19.99,2.91
			S1745.03,515.64,1750.51,507.07z"/>
		<path class="st1" d="M1769.12,588.58c0,0,15.21,22.69,23.12,21.76c7.91-0.92,12.81-10.77,12.69-28.02s2.83-27.88-5.65-35.89
			c-8.48-8.01-13.89-8.13-21.56-9.37c-9.17-1.48-13.97,6.57-21.37,11.6c-7.4,5.03-32.2,19.81-11.6,29.05
			C1765.35,586.94,1766.34,584.67,1769.12,588.58z"/>
	</g>
	<g>
		<path class="st1" d="M1835.79,335.63c-6.87,10.74-15.94,16.87-20.27,13.71c-4.33-3.17-9.17-19.48-2.3-30.22
			c6.87-10.74,14.06-21.98,27.16-8.67C1844.18,314.32,1842.66,324.89,1835.79,335.63z"/>
		<path class="st1" d="M1842.07,342.17c-6.87,10.74-8.92,22.01-4.59,25.18c4.33,3.17,20.3,2.07,27.16-8.67
			c6.87-10.74,14.06-21.98-2.3-30.22C1857.6,326.08,1848.94,331.43,1842.07,342.17z"/>
		<path class="st1" d="M1860.94,407.56c5.47-8.56,12.3-20.47,5.47-25.47s-25.85,0.61-31.32,9.17c-5.47,8.56-2.11,15.99,4.72,20.98
			S1855.47,416.12,1860.94,407.56z"/>
		<path class="st1" d="M1771.09,331.01c5.47-8.56,13.38-19.68,20.2-14.69c6.82,4.99,8.84,25.98,3.37,34.55
			c-5.47,8.56-13.17,7.9-19.99,2.91S1765.61,339.57,1771.09,331.01z"/>
		<path class="st1" d="M1789.7,412.52c0,0,15.21,22.69,23.12,21.76c7.91-0.92,12.81-10.77,12.69-28.02s2.83-27.88-5.65-35.89
			s-13.89-8.13-21.56-9.37c-9.17-1.48-13.97,6.57-21.37,11.6c-7.4,5.03-32.2,19.81-11.6,29.05
			C1785.93,410.88,1786.92,408.61,1789.7,412.52z"/>
	</g>
	<g>
		<path class="st1" d="M2001.03,333.38c-6.87,10.74-15.94,16.87-20.27,13.71c-4.33-3.17-9.17-19.48-2.3-30.22
			c6.87-10.74,14.06-21.98,27.16-8.67C2009.42,312.06,2007.89,322.64,2001.03,333.38z"/>
		<path class="st1" d="M2007.31,339.92c-6.87,10.74-8.92,22.01-4.59,25.18c4.33,3.17,20.3,2.07,27.16-8.67
			c6.87-10.74,14.06-21.98-2.3-30.22C2022.83,323.82,2014.17,329.18,2007.31,339.92z"/>
		<path class="st1" d="M2026.18,405.31c5.47-8.56,12.3-20.47,5.47-25.47s-25.85,0.61-31.32,9.17c-5.47,8.56-2.11,15.99,4.72,20.98
			C2011.87,414.98,2020.71,413.87,2026.18,405.31z"/>
		<path class="st1" d="M1936.33,328.75c5.47-8.56,13.38-19.68,20.2-14.69s8.84,25.98,3.37,34.55c-5.47,8.56-13.17,7.9-19.99,2.91
			C1933.08,346.53,1930.85,337.32,1936.33,328.75z"/>
		<path class="st1" d="M1954.94,410.26c0,0,15.21,22.69,23.12,21.76c7.91-0.92,12.81-10.77,12.69-28.02
			c-0.13-17.25,2.83-27.88-5.65-35.89c-8.48-8.01-13.89-8.13-21.56-9.37c-9.17-1.48-13.97,6.57-21.37,11.6
			c-7.4,5.03-32.2,19.81-11.6,29.05C1951.17,408.62,1952.16,406.35,1954.94,410.26z"/>
	</g>
	<g>
		<path class="st1" d="M2020.49,193.13c-6.87,10.74-15.94,16.87-20.27,13.71c-4.33-3.17-9.17-19.48-2.3-30.22
			c6.87-10.74,14.06-21.98,27.16-8.67C2028.89,171.82,2027.36,182.39,2020.49,193.13z"/>
		<path class="st1" d="M2026.78,199.67c-6.87,10.74-8.92,22.01-4.59,25.18s20.3,2.07,27.16-8.67c6.87-10.74,14.06-21.98-2.3-30.22
			C2042.3,183.57,2033.64,188.93,2026.78,199.67z"/>
		<path class="st1" d="M2045.65,265.06c5.47-8.56,12.3-20.47,5.47-25.47c-6.82-4.99-25.85,0.61-31.32,9.17
			c-5.47,8.56-2.11,15.99,4.72,20.98S2040.17,273.62,2045.65,265.06z"/>
		<path class="st1" d="M1955.79,188.51c5.47-8.56,13.38-19.68,20.2-14.69c6.82,4.99,8.84,25.98,3.37,34.55
			c-5.47,8.56-13.17,7.9-19.99,2.91C1952.55,206.28,1950.32,197.07,1955.79,188.51z"/>
		<path class="st1" d="M1974.4,270.02c0,0,15.21,22.69,23.12,21.76c7.91-0.92,12.81-10.77,12.69-28.02s2.83-27.88-5.65-35.89
			c-8.48-8.01-13.89-8.13-21.56-9.37c-9.17-1.48-13.97,6.57-21.37,11.6c-7.4,5.03-32.2,19.81-11.6,29.05
			C1970.64,268.38,1971.63,266.11,1974.4,270.02z"/>
	</g>
</g>
</svg>
