<?xml version="1.0" standalone="no"?>
<!DOCTYPE svg PUBLIC "-//W3C//DTD SVG 20010904//EN"
 "http://www.w3.org/TR/2001/REC-SVG-20010904/DTD/svg10.dtd">
<svg version="1.0" xmlns="http://www.w3.org/2000/svg"
 width="426.000000pt" height="585.000000pt" viewBox="0 0 426.000000 585.000000"
 preserveAspectRatio="xMidYMid meet">

<g transform="translate(0.000000,585.000000) scale(0.100000,-0.100000)"
fill="#000000" stroke="none">
<path d="M2378 5808 c-51 -79 -50 -190 1 -218 28 -14 60 3 100 54 43 54 44
115 2 157 -37 36 -82 39 -103 7z"/>
<path d="M2148 5799 c-23 -13 -24 -102 -3 -150 25 -58 49 -79 93 -81 56 -2 62
5 62 75 0 48 -6 73 -28 112 -25 46 -30 50 -67 52 -22 2 -48 -2 -57 -8z"/>
<path d="M2533 5635 c-25 -18 -47 -86 -38 -116 23 -71 155 -28 155 51 0 24
-17 61 -34 72 -19 13 -60 9 -83 -7z"/>
<path d="M1976 5608 c-23 -32 -20 -75 8 -122 25 -43 90 -86 130 -86 58 0 76
92 32 157 -48 70 -138 97 -170 51z"/>
<path d="M2249 5483 c-54 -56 -89 -115 -89 -147 0 -32 34 -73 83 -98 73 -38
207 -24 222 23 4 10 10 19 15 19 11 0 40 64 40 89 0 26 -70 105 -122 137 -60
38 -96 32 -149 -23z"/>
<path d="M1805 4710 c-22 -24 -16 -90 15 -150 23 -45 51 -61 93 -53 76 15 76
178 0 212 -38 17 -88 13 -108 -9z"/>
<path d="M2017 4605 c-17 -36 -22 -100 -11 -130 17 -42 98 -36 128 10 9 14 16
46 16 73 0 60 -20 82 -76 82 -36 0 -42 -4 -57 -35z"/>
<path d="M1657 4619 c-9 -5 -24 -23 -32 -40 -15 -28 -14 -31 16 -75 17 -25 45
-52 63 -61 29 -13 36 -13 69 1 29 11 37 21 37 40 0 37 -15 70 -50 110 -33 37
-67 46 -103 25z"/>
<path d="M1853 4418 c-28 -30 -38 -48 -72 -131 -22 -55 -12 -97 37 -149 44
-47 104 -37 196 35 74 57 116 115 116 158 0 44 -13 56 -70 65 -24 4 -59 18
-78 31 -50 33 -91 30 -129 -9z"/>
<path d="M1566 4399 c-31 -25 -33 -47 -6 -82 55 -70 156 -75 181 -10 13 34 -8
66 -61 93 -50 25 -81 25 -114 -1z"/>
<path d="M2361 3765 c-25 -66 -27 -115 -6 -155 24 -46 59 -40 112 16 36 40 43
53 43 88 0 38 -19 81 -44 98 -6 4 -28 8 -48 8 -35 0 -37 -2 -57 -55z"/>
<path d="M2153 3798 c-20 -10 -23 -19 -23 -70 0 -57 17 -104 53 -150 18 -23
89 -24 107 -3 8 10 11 37 8 80 -7 114 -73 179 -145 143z"/>
<path d="M2525 3616 c-47 -47 -42 -129 8 -138 58 -11 117 37 117 95 0 64 -77
91 -125 43z"/>
<path d="M1976 3598 c-38 -53 1 -146 74 -179 79 -36 120 -18 120 52 0 49 -12
74 -58 117 -44 41 -111 46 -136 10z"/>
<path d="M2245 3474 c-27 -31 -54 -67 -59 -80 -6 -13 -13 -24 -18 -24 -14 0
-8 -51 10 -82 33 -58 171 -95 243 -65 38 16 99 96 99 130 0 43 -65 118 -135
156 -63 33 -83 28 -140 -35z"/>
<path d="M1811 2706 c-20 -22 -23 -31 -16 -72 10 -67 33 -109 69 -126 58 -28
106 13 106 92 0 103 -99 169 -159 106z"/>
<path d="M2017 2601 c-22 -38 -23 -124 -1 -145 23 -24 68 -19 103 10 27 23 31
32 31 78 0 65 -19 86 -76 86 -33 0 -43 -5 -57 -29z"/>
<path d="M1645 2595 c-14 -13 -25 -31 -25 -40 0 -27 27 -71 66 -104 29 -26 42
-31 63 -26 79 20 80 91 2 173 -29 30 -75 29 -106 -3z"/>
<path d="M1847 2401 c-36 -40 -77 -134 -77 -177 0 -31 15 -61 48 -96 40 -44
85 -38 171 20 86 58 141 127 141 175 0 40 -10 50 -65 67 -22 6 -59 20 -82 31
-66 29 -95 25 -136 -20z"/>
<path d="M1562 2387 c-26 -28 -27 -45 -4 -73 53 -67 167 -72 186 -9 21 74
-127 140 -182 82z"/>
<path d="M2361 1679 c-25 -62 -27 -121 -4 -160 30 -50 86 -30 134 47 17 28 20
45 16 82 -6 56 -33 82 -87 82 -36 0 -38 -2 -59 -51z"/>
<path d="M2151 1708 c-21 -11 -23 -17 -19 -80 3 -55 9 -75 34 -110 25 -36 36
-44 68 -46 53 -5 66 10 66 78 0 44 -7 70 -29 111 -25 48 -32 54 -62 56 -19 1
-45 -3 -58 -9z"/>
<path d="M2528 1537 c-20 -16 -41 -89 -31 -113 9 -26 23 -34 61 -34 69 0 115
83 76 138 -17 25 -77 30 -106 9z"/>
<path d="M1970 1504 c-16 -42 -12 -77 15 -117 26 -38 92 -77 130 -77 60 0 74
90 25 158 -37 51 -57 62 -115 62 -40 0 -47 -3 -55 -26z"/>
<path d="M2244 1382 c-57 -64 -84 -110 -84 -144 0 -37 51 -85 111 -102 63 -19
64 -19 129 -5 46 10 54 16 87 65 29 44 34 59 29 87 -11 59 -135 158 -196 156
-17 0 -41 -18 -76 -57z"/>
<path d="M1803 614 c-14 -23 -15 -33 -5 -81 13 -65 34 -100 67 -115 57 -26
105 22 105 106 0 37 -6 51 -34 80 -28 30 -40 36 -74 36 -34 0 -45 -5 -59 -26z"/>
<path d="M2042 543 c-22 -9 -42 -61 -42 -112 0 -40 4 -53 22 -65 34 -24 63
-19 97 15 26 26 31 38 31 80 0 36 -5 54 -20 69 -19 19 -59 25 -88 13z"/>
<path d="M1650 517 c-8 -7 -21 -22 -28 -35 -10 -19 -10 -27 5 -50 35 -57 76
-92 108 -92 87 0 100 79 27 158 -32 35 -83 43 -112 19z"/>
<path d="M1870 335 c-38 -28 -60 -64 -86 -138 -21 -62 -13 -104 30 -152 32
-36 36 -38 78 -31 56 9 152 74 201 136 62 80 47 143 -39 157 -20 3 -56 17 -78
29 -52 30 -64 30 -106 -1z"/>
<path d="M1560 298 c-11 -12 -20 -27 -20 -32 0 -24 41 -76 59 -76 11 0 23 -4
26 -10 8 -13 56 -13 88 -1 28 11 42 52 27 80 -30 57 -141 81 -180 39z"/>
</g>
</svg>
