<?xml version="1.0" standalone="no"?>
<!DOCTYPE svg PUBLIC "-//W3C//DTD SVG 20010904//EN"
 "http://www.w3.org/TR/2001/REC-SVG-20010904/DTD/svg10.dtd">
<svg version="1.0" xmlns="http://www.w3.org/2000/svg"
 width="500.000000pt" height="500.000000pt" viewBox="0 0 500.000000 500.000000"
 preserveAspectRatio="xMidYMid meet">

<g transform="translate(0.000000,500.000000) scale(0.100000,-0.100000)"
fill="#000000" stroke="none">
<path d="M2390 4866 c0 -8 5 -18 10 -21 6 -3 10 1 10 9 0 8 -4 18 -10 21 -5 3
-10 -1 -10 -9z"/>
<path d="M2420 4866 c0 -8 5 -18 10 -21 6 -3 10 3 10 14 0 12 -4 21 -10 21 -5
0 -10 -6 -10 -14z"/>
<path d="M2456 4851 c-4 -7 -5 -15 -2 -18 9 -9 19 4 14 18 -4 11 -6 11 -12 0z"/>
<path d="M2370 4836 c0 -8 5 -18 10 -21 6 -3 10 1 10 9 0 8 -4 18 -10 21 -5 3
-10 -1 -10 -9z"/>
<path d="M2401 4804 c-15 -33 -9 -42 29 -36 40 6 47 19 21 43 -27 25 -35 24
-50 -7z"/>
<path d="M2560 4770 c0 -11 5 -20 10 -20 6 0 10 9 10 20 0 11 -4 20 -10 20 -5
0 -10 -9 -10 -20z"/>
<path d="M2597 4774 c-4 -4 -7 -14 -7 -23 0 -11 3 -12 11 -4 6 6 10 16 7 23
-2 6 -7 8 -11 4z"/>
<path d="M2530 4751 c0 -12 5 -21 10 -21 6 0 10 6 10 14 0 8 -4 18 -10 21 -5
3 -10 -3 -10 -14z"/>
<path d="M2617 4744 c-4 -4 -7 -14 -7 -23 0 -11 3 -12 11 -4 6 6 10 16 7 23
-2 6 -7 8 -11 4z"/>
<path d="M2546 4710 c-15 -15 -16 -20 -5 -24 60 -19 78 -12 59 24 -13 25 -29
25 -54 0z"/>
<path d="M2404 4426 c-8 -21 3 -49 16 -41 5 3 10 15 10 25 0 25 -18 36 -26 16z"/>
<path d="M2360 4422 c0 -19 12 -42 22 -42 14 0 5 43 -9 48 -7 2 -13 -1 -13 -6z"/>
<path d="M2447 4403 c-10 -10 -8 -43 2 -43 9 0 21 24 21 41 0 11 -14 12 -23 2z"/>
<path d="M2334 4374 c3 -9 6 -18 6 -20 0 -2 7 -4 15 -4 18 0 19 12 3 28 -17
17 -31 15 -24 -4z"/>
<path d="M2383 4343 c-20 -41 -17 -56 10 -49 12 3 32 6 45 6 28 0 28 21 -1 48
-30 28 -39 28 -54 -5z"/>
<path d="M2574 4305 c-3 -8 -3 -19 1 -25 11 -18 25 -11 25 15 0 27 -17 34 -26
10z"/>
<path d="M2617 4303 c-4 -3 -7 -15 -7 -26 0 -16 3 -17 15 -7 8 7 15 19 15 26
0 15 -12 19 -23 7z"/>
<path d="M2540 4270 c0 -11 5 -20 10 -20 6 0 10 9 10 20 0 11 -4 20 -10 20 -5
0 -10 -9 -10 -20z"/>
<path d="M2640 4249 c0 -18 2 -19 15 -9 8 7 15 16 15 21 0 5 -7 9 -15 9 -9 0
-15 -9 -15 -21z"/>
<path d="M2566 4235 c-31 -25 -31 -63 0 -51 8 3 25 1 36 -5 31 -17 43 3 24 39
-22 42 -27 43 -60 17z"/>
<path d="M2390 3910 c0 -32 14 -40 24 -15 6 18 -2 45 -15 45 -5 0 -9 -13 -9
-30z"/>
<path d="M2330 3916 c0 -25 12 -46 26 -46 17 0 18 32 2 48 -16 16 -28 15 -28
-2z"/>
<path d="M2437 3903 c-4 -3 -7 -17 -7 -30 0 -33 24 -24 28 10 3 26 -7 35 -21
20z"/>
<path d="M2300 3867 c0 -18 28 -42 37 -33 9 8 -9 38 -25 44 -7 2 -12 -3 -12
-11z"/>
<path d="M2375 3852 c-16 -12 -35 -50 -35 -72 0 -22 34 -29 46 -9 3 6 16 8 29
5 14 -4 27 0 35 9 10 12 6 20 -21 45 -36 32 -39 34 -54 22z"/>
<path d="M2590 3770 c0 -16 4 -30 9 -30 13 0 21 27 15 45 -10 25 -24 17 -24
-15z"/>
<path d="M2642 3778 c-16 -16 -15 -48 2 -48 14 0 26 21 26 46 0 17 -12 18 -28
2z"/>
<path d="M2540 3753 c0 -10 5 -25 10 -33 8 -12 11 -13 19 -1 12 18 2 51 -15
51 -8 0 -14 -8 -14 -17z"/>
<path d="M2674 3725 c-18 -28 -14 -41 11 -32 8 4 15 18 15 32 0 32 -5 32 -26
0z"/>
<path d="M2578 3691 c-35 -35 -35 -51 -2 -51 14 0 34 -5 45 -11 15 -7 24 -7
34 1 12 10 11 18 -7 51 -11 21 -25 39 -32 39 -6 0 -23 -13 -38 -29z"/>
<path d="M2374 3355 c1 -19 6 -35 11 -35 14 0 13 62 -1 67 -6 2 -10 -10 -10
-32z"/>
<path d="M2307 3373 c-11 -10 -8 -35 3 -28 5 3 7 0 4 -8 -3 -8 2 -19 10 -26
21 -18 30 4 16 40 -12 29 -21 35 -33 22z"/>
<path d="M2422 3335 c-13 -27 -6 -58 12 -52 13 4 21 77 8 77 -5 0 -14 -11 -20
-25z"/>
<path d="M2264 3316 c-7 -19 13 -56 31 -56 20 0 19 34 -1 54 -19 20 -23 20
-30 2z"/>
<path d="M2327 3249 c-23 -48 -16 -74 16 -64 12 4 40 10 61 13 22 4 41 12 43
18 6 17 -55 74 -80 74 -16 0 -27 -11 -40 -41z"/>
<path d="M2604 3216 c-8 -21 -1 -59 12 -63 14 -5 24 30 17 57 -6 23 -21 26
-29 6z"/>
<path d="M2666 3198 c-19 -27 -20 -44 -4 -54 14 -9 38 23 38 53 0 29 -14 29
-34 1z"/>
<path d="M2555 3188 c-10 -26 -2 -63 15 -63 20 0 24 36 6 60 -13 18 -15 18
-21 3z"/>
<path d="M2706 3149 c-20 -29 -21 -49 -1 -49 21 0 42 47 28 61 -8 8 -15 4 -27
-12z"/>
<path d="M2582 3094 c-37 -41 -30 -65 17 -64 14 1 39 -2 55 -6 40 -10 48 10
22 62 -26 55 -49 56 -94 8z"/>
<path d="M2354 2777 c-10 -27 0 -72 16 -72 11 0 15 11 15 39 0 40 -20 61 -31
33z"/>
<path d="M2273 2763 c-8 -20 18 -68 37 -68 10 0 14 9 13 28 -3 48 -37 75 -50
40z"/>
<path d="M2411 2731 c-24 -45 -1 -93 26 -55 16 22 14 66 -4 71 -6 2 -16 -5
-22 -16z"/>
<path d="M2234 2706 c-10 -25 13 -68 34 -64 21 5 17 36 -8 62 -18 18 -20 19
-26 2z"/>
<path d="M2322 2668 c-7 -7 -12 -20 -12 -29 0 -9 -7 -22 -15 -29 -9 -7 -15
-23 -13 -34 2 -17 9 -20 33 -18 17 2 47 4 69 6 21 2 43 9 48 14 14 14 0 52
-18 52 -8 0 -18 8 -21 18 -12 32 -48 43 -71 20z"/>
<path d="M2617 2593 c-12 -12 -7 -60 7 -72 12 -10 17 -8 26 9 21 39 -7 90 -33
63z"/>
<path d="M2692 2578 c-14 -14 -16 -78 -3 -78 15 0 41 42 41 67 0 25 -19 30
-38 11z"/>
<path d="M2561 2552 c-14 -26 1 -72 24 -72 19 0 20 49 1 75 -13 18 -14 18 -25
-3z"/>
<path d="M2737 2512 c-17 -19 -23 -62 -9 -62 34 1 67 80 33 80 -4 0 -15 -8
-24 -18z"/>
<path d="M2593 2454 c-18 -19 -33 -41 -33 -49 0 -16 43 -31 59 -21 6 4 24 0
42 -9 17 -9 37 -14 45 -11 18 7 18 50 0 66 -8 6 -16 21 -18 33 -5 38 -56 33
-95 -9z"/>
<path d="M2343 2133 c-16 -6 -17 -89 -3 -98 17 -11 40 15 40 44 0 32 -20 61
-37 54z"/>
<path d="M2244 2105 c-15 -37 36 -107 55 -76 9 15 7 30 -12 69 -12 25 -35 29
-43 7z"/>
<path d="M2400 2065 c-20 -53 -5 -90 26 -64 18 15 15 80 -3 87 -7 2 -17 -8
-23 -23z"/>
<path d="M2194 2037 c-7 -20 11 -54 36 -67 30 -16 38 15 13 48 -24 32 -41 38
-49 19z"/>
<path d="M2302 1998 c-7 -7 -12 -17 -12 -24 0 -6 -9 -23 -21 -38 -26 -33 -22
-70 9 -74 13 -2 30 2 38 9 8 7 36 13 62 13 41 1 47 4 50 24 3 16 -8 34 -37 62
-42 41 -68 49 -89 28z"/>
<path d="M2643 1922 c-21 -13 -26 -65 -9 -87 l16 -20 16 20 c24 32 5 104 -23
87z"/>
<path d="M2716 1888 c-21 -29 -21 -78 -1 -78 20 0 47 44 43 71 -4 31 -23 34
-42 7z"/>
<path d="M2567 1873 c-12 -11 -8 -58 6 -78 28 -38 51 20 27 66 -11 20 -22 24
-33 12z"/>
<path d="M2768 1823 c-9 -10 -19 -28 -22 -40 -6 -18 -3 -23 12 -23 25 0 52 31
52 58 0 26 -21 29 -42 5z"/>
<path d="M2612 1762 c-24 -22 -42 -47 -42 -59 0 -25 29 -38 60 -28 13 4 31 0
46 -10 59 -38 99 15 55 71 -12 15 -21 32 -21 39 0 13 -21 25 -44 25 -6 0 -31
-17 -54 -38z"/>
<path d="M2325 1420 c-12 -20 -15 -84 -5 -100 15 -23 43 11 42 51 -1 37 -25
68 -37 49z"/>
<path d="M2221 1388 c-9 -26 -5 -45 17 -70 23 -28 42 -22 42 12 0 17 -5 30
-12 30 -6 0 -8 3 -5 6 8 9 -11 44 -24 44 -5 0 -13 -10 -18 -22z"/>
<path d="M2390 1350 c-15 -28 -9 -75 10 -75 21 0 45 54 33 74 -15 24 -31 24
-43 1z"/>
<path d="M2163 1324 c-7 -19 25 -85 44 -92 36 -11 19 79 -19 99 -14 8 -20 6
-25 -7z"/>
<path d="M2277 1272 c-10 -10 -17 -25 -17 -34 0 -8 -9 -23 -20 -33 -24 -22
-26 -58 -4 -76 13 -10 21 -10 47 1 18 7 54 14 80 14 44 1 66 14 67 38 0 17
-99 108 -117 108 -11 0 -27 -8 -36 -18z"/>
<path d="M2646 1174 c-9 -23 -7 -67 3 -83 24 -38 64 37 41 78 -13 25 -35 27
-44 5z"/>
<path d="M2736 1148 c-23 -32 -21 -78 3 -78 26 0 43 23 44 62 2 40 -24 49 -47
16z"/>
<path d="M2570 1101 c0 -40 23 -76 41 -66 23 15 5 105 -22 105 -15 0 -19 -7
-19 -39z"/>
<path d="M2797 1083 c-8 -10 -18 -30 -22 -44 -10 -40 13 -48 42 -15 41 48 22
105 -20 59z"/>
<path d="M2627 1017 c-70 -65 -61 -121 17 -101 17 4 35 0 52 -11 14 -9 37 -15
52 -13 22 2 28 9 30 34 2 20 -4 36 -18 49 -11 10 -20 26 -20 36 0 18 -35 49
-55 49 -6 0 -32 -20 -58 -43z"/>
<path d="M2295 710 c-8 -14 -9 -72 -1 -97 15 -46 56 -15 56 42 0 49 -36 85
-55 55z"/>
<path d="M2190 657 c0 -47 21 -77 55 -77 15 0 17 6 12 41 -6 42 -30 79 -54 79
-9 0 -13 -14 -13 -43z"/>
<path d="M2380 641 c-14 -26 -13 -88 2 -97 15 -10 48 32 48 61 0 53 -29 74
-50 36z"/>
<path d="M2137 613 c-14 -14 -6 -64 13 -83 46 -46 68 -4 30 58 -20 32 -30 38
-43 25z"/>
<path d="M2269 556 c-13 -6 -26 -20 -28 -31 -2 -11 -14 -33 -27 -48 -54 -65
-3 -128 65 -81 17 12 35 15 66 10 33 -4 48 -1 60 10 21 21 19 51 -6 72 -11 9
-32 29 -47 43 -36 34 -55 40 -83 25z"/>
<path d="M2660 441 c-15 -29 -12 -77 6 -96 23 -23 38 -14 48 28 16 64 -27 118
-54 68z"/>
<path d="M2766 421 c-25 -28 -33 -89 -12 -97 23 -9 53 21 59 59 8 57 -14 75
-47 38z"/>
<path d="M2580 391 c-5 -11 -10 -28 -10 -38 0 -25 28 -63 46 -63 20 0 19 83
-2 104 -20 20 -21 20 -34 -3z"/>
<path d="M2821 331 c-37 -51 -20 -102 21 -64 25 22 39 58 32 78 -9 23 -31 18
-53 -14z"/>
<path d="M2656 281 c-9 -16 -24 -31 -35 -34 -28 -7 -45 -52 -30 -78 9 -17 19
-20 53 -17 26 2 57 -4 85 -16 31 -15 47 -17 59 -9 25 15 27 61 4 87 -11 11
-23 32 -27 46 -12 39 -25 50 -61 50 -27 0 -36 -6 -48 -29z"/>
</g>
</svg>
